<svg width="20" height="20" viewBox="0 0 20 20" fill="none" xmlns="http://www.w3.org/2000/svg">
<path fill-rule="evenodd" clip-rule="evenodd" d="M9.71793 8.95834C9.87708 8.95834 10.0297 8.89249 10.1422 8.77528L12.5426 6.27528C12.7769 6.0312 12.7769 5.63547 12.5426 5.3914C12.3082 5.14732 11.9283 5.14732 11.6939 5.3914L10.318 6.82446V1.66667C10.318 1.32149 10.0493 1.04167 9.71793 1.04167C9.38651 1.04167 9.11785 1.32149 9.11785 1.66667V6.82446L7.74194 5.3914C7.50759 5.14732 7.12765 5.14732 6.8933 5.3914C6.65896 5.63547 6.65896 6.0312 6.8933 6.27528L9.29361 8.77528C9.40614 8.89249 9.55878 8.95834 9.71793 8.95834Z" fill="white"/>
<path d="M2.88863 17.113C4.06035 18.3333 5.94621 18.3333 9.71793 18.3333C13.4896 18.3333 15.3755 18.3333 16.5472 17.113C17.564 16.054 17.6985 14.4349 17.7162 11.4583H15.1904C14.4113 11.4583 14.2076 11.4717 14.0365 11.5536C13.8655 11.6356 13.7232 11.788 13.2161 12.4041L12.6618 13.0777C12.2601 13.567 11.9419 13.9544 11.5015 14.1653C11.0612 14.3763 10.5717 14.3758 9.95359 14.3751H9.48226C8.86418 14.3758 8.37467 14.3763 7.93431 14.1653C7.49395 13.9544 7.17577 13.5669 6.77402 13.0777L6.21975 12.4041C5.71269 11.788 5.57037 11.6356 5.39934 11.5536C5.2283 11.4717 5.02458 11.4583 4.24543 11.4583H1.71961C1.7374 14.4349 1.87186 16.054 2.88863 17.113Z" fill="white"/>
<path d="M17.7189 10C17.7189 6.07163 17.7189 4.10745 16.5472 2.88706C15.5789 1.87857 14.123 1.70346 11.5182 1.67306V4.06511C12.1514 3.8325 12.8847 3.97996 13.3912 4.50751C14.0942 5.23975 14.0942 6.42693 13.3912 7.15916L10.9909 9.65916C10.6533 10.0108 10.1954 10.2083 9.71793 10.2083C9.24048 10.2083 8.78258 10.0108 8.44497 9.65916L6.04466 7.15916C5.34163 6.42693 5.34163 5.23975 6.04466 4.50751C6.55118 3.97996 7.28442 3.8325 7.9177 4.06511V1.67306C5.31285 1.70346 3.8569 1.87857 2.88863 2.88706C1.7169 4.10745 1.7169 6.07163 1.7169 10L1.71691 10.2083L4.35287 10.2083C4.97096 10.2076 5.46047 10.207 5.90083 10.418C6.34119 10.6289 6.65937 11.0164 7.06112 11.5056L7.61538 12.1792C8.12244 12.7954 8.26477 12.9478 8.4358 13.0297C8.60683 13.1116 8.81056 13.125 9.5897 13.125H9.84615C10.6253 13.125 10.829 13.1116 11.0001 13.0297C11.1711 12.9478 11.3134 12.7954 11.8205 12.1792L12.3747 11.5056C12.7765 11.0164 13.0947 10.6289 13.535 10.418C13.9754 10.207 14.4649 10.2076 15.083 10.2083L17.7189 10.2083L17.7189 10Z" fill="white"/>
</svg>
