<svg width="32" height="32" viewBox="0 0 32 32" fill="none" xmlns="http://www.w3.org/2000/svg">
<path fill-rule="evenodd" clip-rule="evenodd" d="M15.9993 29.3346C9.71396 29.3346 6.57126 29.3346 4.61864 27.382C2.66602 25.4294 2.66602 22.2867 2.66602 16.0013C2.66602 9.71591 2.66602 6.57321 4.61864 4.62059C6.57126 2.66797 9.71396 2.66797 15.9993 2.66797C22.2847 2.66797 25.4274 2.66797 27.3801 4.62059C29.3327 6.57321 29.3327 9.71591 29.3327 16.0013C29.3327 22.2867 29.3327 25.4294 27.3801 27.382C25.4274 29.3346 22.2847 29.3346 15.9993 29.3346ZM11.9589 11.9609C12.3494 11.5703 12.9826 11.5703 13.3731 11.9609L15.9993 14.5871L18.6255 11.9609C19.0161 11.5704 19.6492 11.5704 20.0398 11.9609C20.4303 12.3514 20.4303 12.9846 20.0398 13.3751L17.4135 16.0013L20.0397 18.6275C20.4303 19.018 20.4303 19.6512 20.0397 20.0417C19.6492 20.4322 19.016 20.4322 18.6255 20.0417L15.9993 17.4155L13.3731 20.0417C12.9826 20.4323 12.3494 20.4323 11.9589 20.0417C11.5684 19.6512 11.5684 19.0181 11.9589 18.6275L14.5851 16.0013L11.9589 13.3751C11.5684 12.9846 11.5684 12.3514 11.9589 11.9609Z" fill="#1A072C"/>
</svg>
