<svg width="42" height="42" viewBox="0 0 42 42" fill="none" xmlns="http://www.w3.org/2000/svg">
<path fill-rule="evenodd" clip-rule="evenodd" d="M13.0507 21.4077L3.39826 31.0602C3.02602 31.4324 2.77282 31.9059 2.66977 32.4221L1.31142 39.2103C1.18349 39.8508 1.38426 40.5136 1.84622 40.9756C2.30819 41.4375 2.97094 41.6383 3.61147 41.5104L10.3997 40.152C10.9159 40.049 11.3894 39.7958 11.7616 39.4235L21.4141 29.7711L32.8557 41.2128C33.355 41.712 34.0329 41.9937 34.74 41.9937C35.4472 41.9937 36.125 41.712 36.6243 41.2128C37.9187 39.9184 39.9247 37.9124 41.2191 36.618C41.7184 36.1187 42 35.4408 42 34.7337C42 34.0265 41.7184 33.3487 41.2191 32.8494L29.7774 21.4077L41.2191 9.96605C41.7193 9.46677 42 8.78892 42 8.08176C42 7.37459 41.7184 6.69674 41.2191 6.19746C39.9247 4.90307 37.9187 2.89707 36.6243 1.60268C36.125 1.1034 35.4472 0.821777 34.74 0.821777C34.0329 0.821777 33.355 1.10251 32.8557 1.60268L21.4141 13.0443L9.9724 1.60268C9.47312 1.1034 8.79527 0.821777 8.0881 0.821777C7.38094 0.821777 6.70309 1.1034 6.20381 1.60268C4.90942 2.89707 2.90342 4.90307 1.60902 6.19746C1.10974 6.69674 0.828125 7.37459 0.828125 8.08176C0.828125 8.78892 1.10974 9.46677 1.60902 9.96605L13.0507 21.4077ZM32.4426 38.2873L34.1119 39.9566C34.2781 40.1227 34.5046 40.2169 34.74 40.2169C34.9754 40.2169 35.202 40.1227 35.3681 39.9566L39.9629 35.3618C40.129 35.1956 40.2232 34.9691 40.2232 34.7337C40.2232 34.4982 40.129 34.2717 39.9629 34.1056L8.7162 2.85887C8.55007 2.69274 8.32353 2.59857 8.0881 2.59857C7.85268 2.59857 7.62614 2.69274 7.46001 2.85887L2.86522 7.45366C2.69909 7.61979 2.60492 7.84633 2.60492 8.08176C2.60492 8.31718 2.69909 8.54372 2.86522 8.70985L4.53452 10.3792L6.57161 8.34206C6.91808 7.99558 7.48133 7.99558 7.8278 8.34206C8.17428 8.68853 8.17428 9.25178 7.8278 9.59825L5.79071 11.6353L7.19971 13.0443L9.2368 11.0072C9.58328 10.6608 10.1465 10.6608 10.493 11.0072C10.8395 11.3537 10.8395 11.917 10.493 12.2634L8.4559 14.3005L9.8649 15.7095L11.902 13.6724C12.2485 13.326 12.8117 13.326 13.1582 13.6724C13.5047 14.0189 13.5047 14.5822 13.1582 14.9286L11.1211 16.9657L12.5301 18.3747L14.5672 16.3376C14.9137 15.9912 15.4769 15.9912 15.8234 16.3376C16.1699 16.6841 16.1699 17.2474 15.8234 17.5938L13.7863 19.6309L15.1953 21.0399L17.2324 19.0028C17.5789 18.6563 18.1421 18.6563 18.4886 19.0028C18.835 19.3493 18.835 19.9125 18.4886 20.259L16.4515 22.2961L17.8605 23.7051L19.8976 21.668C20.244 21.3215 20.8073 21.3215 21.1538 21.668C21.5002 22.0145 21.5002 22.5777 21.1538 22.9242L19.1167 24.9613L20.5257 26.3703L22.5628 24.3332C22.9092 23.9867 23.4725 23.9867 23.819 24.3332C24.1654 24.6797 24.1654 25.2429 23.819 25.5894L21.7819 27.6265L23.1909 29.0355L25.228 26.9984C25.5744 26.6519 26.1377 26.6519 26.4841 26.9984C26.8306 27.3449 26.8306 27.9081 26.4841 28.2546L24.4471 30.2917L25.856 31.7007L27.8931 29.6636C28.2396 29.3171 28.8029 29.3171 29.1493 29.6636C29.4958 30.0101 29.4958 30.5733 29.1493 30.9198L27.1122 32.9569L28.5212 34.3659L30.5583 32.3288C30.9048 31.9823 31.4681 31.9823 31.8145 32.3288C32.161 32.6753 32.161 33.2385 31.8145 33.585L29.7774 35.6221L31.1864 37.0311L33.2235 34.994C33.57 34.6475 34.1332 34.6475 34.4797 34.994C34.8262 35.3404 34.8262 35.9037 34.4797 36.2502L32.4426 38.2873ZM4.19161 33.8702L8.95161 38.6302L3.26322 39.7673C3.20459 39.7798 3.14506 39.7611 3.10242 39.7194C3.06067 39.6767 3.04202 39.6172 3.05446 39.5586L4.19161 33.8702ZM14.3069 22.6639L4.90231 32.0685L10.7533 37.9195L20.1579 28.5149L14.3069 22.6639ZM22.6703 14.3005L28.5212 20.1515L34.3722 14.3005L28.5212 8.44955L22.6703 14.3005ZM35.6284 13.0443L29.7774 7.19336L34.1119 2.85887C34.2781 2.69274 34.5046 2.59857 34.74 2.59857C34.9754 2.59857 35.202 2.69274 35.3681 2.85887L39.9629 7.45366C40.129 7.61979 40.2232 7.84633 40.2232 8.08176C40.2232 8.31718 40.129 8.54372 39.9629 8.70985L35.6284 13.0443Z" fill="#10503C"/>
</svg>
