<svg width="21" height="20" viewBox="0 0 21 20" fill="none" xmlns="http://www.w3.org/2000/svg">
<path fill-rule="evenodd" clip-rule="evenodd" d="M9.99411 0.833328C10.3393 0.833328 10.6191 1.11315 10.6191 1.45833V6.61611L12.0522 5.18305C12.2963 4.93898 12.692 4.93898 12.9361 5.18305C13.1801 5.42713 13.1801 5.82286 12.9361 6.06694L10.4361 8.56694C10.192 8.81101 9.79625 8.81101 9.55217 8.56694L7.05217 6.06694C6.8081 5.82286 6.8081 5.42713 7.05217 5.18305C7.29625 4.93898 7.69198 4.93898 7.93606 5.18305L9.36911 6.61611V1.45833C9.36911 1.11315 9.64894 0.833328 9.99411 0.833328ZM13.5388 1.50294C13.5726 1.15942 13.8784 0.908335 14.222 0.942124C15.631 1.08072 16.7172 1.40501 17.549 2.23685C18.2947 2.98252 18.6325 3.93254 18.7943 5.13649C18.9525 6.31273 18.9525 7.82026 18.9524 9.74393V9.83955C18.9524 10.1015 18.9524 10.3558 18.9521 10.6026C18.9523 10.61 18.9524 10.6175 18.9524 10.625C18.9524 10.6332 18.9523 10.6414 18.952 10.6496C18.9491 12.193 18.9296 13.4411 18.7943 14.447C18.6325 15.6509 18.2947 16.6009 17.549 17.3466C16.8033 18.0923 15.8533 18.4301 14.6494 18.5919C13.4731 18.7501 11.9656 18.7501 10.0419 18.7501H9.94631C8.02264 18.7501 6.51511 18.7501 5.33887 18.5919C4.13492 18.4301 3.1849 18.0923 2.43923 17.3466C1.69355 16.6009 1.35577 15.6509 1.1939 14.447C1.05867 13.4411 1.03909 12.193 1.03626 10.6496C1.03594 10.6414 1.03578 10.6332 1.03578 10.625C1.03578 10.6175 1.03591 10.61 1.03618 10.6026C1.03578 10.3558 1.03578 10.1015 1.03578 9.83955V9.74392C1.03577 7.82026 1.03576 6.31273 1.1939 5.13649C1.35577 3.93254 1.69355 2.98252 2.43923 2.23685C3.27107 1.40501 4.35719 1.08072 5.76627 0.942124C6.10979 0.908335 6.41566 1.15942 6.44945 1.50294C6.48324 1.84646 6.23215 2.15233 5.88863 2.18612C4.58913 2.31394 3.85207 2.59178 3.32311 3.12073C2.8484 3.59544 2.57599 4.23771 2.43276 5.30305C2.28711 6.38636 2.28578 7.80988 2.28578 9.79173C2.28578 9.86185 2.28578 9.93127 2.28579 10H4.29433C4.33208 10 4.36938 9.99996 4.40623 9.99992C5.04999 9.99924 5.55983 9.9987 6.01848 10.2097C6.47713 10.4206 6.80852 10.8081 7.22696 11.2973C7.25091 11.3253 7.27516 11.3536 7.29972 11.3823L7.80424 11.9709C8.33237 12.587 8.4806 12.7394 8.65874 12.8214C8.83688 12.9033 9.04906 12.9167 9.86057 12.9167H10.1277C10.9392 12.9167 11.1514 12.9033 11.3295 12.8214C11.5076 12.7394 11.6559 12.587 12.184 11.9709L12.6885 11.3823C12.7131 11.3536 12.7373 11.3253 12.7613 11.2973C13.1797 10.808 13.5111 10.4206 13.9698 10.2097C14.4284 9.9987 14.9382 9.99924 15.582 9.99992C15.6189 9.99996 15.6561 10 15.6939 10H17.7024C17.7024 9.93127 17.7024 9.86185 17.7024 9.79173C17.7024 7.80988 17.7011 6.38636 17.5555 5.30305C17.4122 4.23771 17.1398 3.59544 16.6651 3.12073C16.1362 2.59178 15.3991 2.31394 14.0996 2.18612C13.7561 2.15233 13.505 1.84646 13.5388 1.50294ZM17.6995 11.25H15.6939C14.8824 11.25 14.6702 11.2634 14.4921 11.3453C14.3139 11.4272 14.1657 11.5796 13.6376 12.1958L13.1331 12.7844C13.1085 12.813 13.0842 12.8414 13.0603 12.8694C12.6419 13.3586 12.3105 13.7461 11.8518 13.957C11.3932 14.168 10.8833 14.1674 10.2396 14.1667C10.2027 14.1667 10.1654 14.1667 10.1277 14.1667H9.86057C9.82282 14.1667 9.78552 14.1667 9.74867 14.1667C9.10491 14.1674 8.59507 14.168 8.13642 13.957C7.67777 13.7461 7.34638 13.3586 6.92794 12.8694C6.90398 12.8414 6.87974 12.813 6.85517 12.7844L6.35065 12.1958C5.82253 11.5796 5.6743 11.4272 5.49616 11.3453C5.31802 11.2634 5.10584 11.25 4.29433 11.25H2.2887C2.29656 12.5022 2.3256 13.4834 2.43276 14.2804C2.57599 15.3458 2.8484 15.988 3.32311 16.4627C3.79783 16.9375 4.44009 17.2099 5.50543 17.3531C6.58874 17.4987 8.01226 17.5001 9.99411 17.5001C11.976 17.5001 13.3995 17.4987 14.4828 17.3531C15.5481 17.2099 16.1904 16.9375 16.6651 16.4627C17.1398 15.988 17.4122 15.3458 17.5555 14.2804C17.6626 13.4834 17.6917 12.5022 17.6995 11.25Z" fill="white"/>
</svg>
