<svg width="14" height="14" viewBox="0 0 14 14" fill="none" xmlns="http://www.w3.org/2000/svg">
<path d="M13.693 6.23101L12.7545 5.14108C12.5751 4.93414 12.4302 4.54783 12.4302 4.2719V3.0992C12.4302 2.36798 11.8299 1.76783 11.0984 1.76783H9.92537C9.65626 1.76783 9.26293 1.62296 9.05592 1.44361L7.96565 0.505444C7.48952 0.0984458 6.70977 0.0984458 6.22674 0.505444L5.14338 1.45051C4.93636 1.62296 4.54304 1.76783 4.27392 1.76783H3.08015C2.3487 1.76783 1.74836 2.36798 1.74836 3.0992V4.2788C1.74836 4.54783 1.60346 4.93414 1.43095 5.14108L0.499387 6.23791C0.0991625 6.71389 0.0991625 7.4865 0.499387 7.96248L1.43095 9.0593C1.60346 9.26625 1.74836 9.65256 1.74836 9.92159V11.1012C1.74836 11.8324 2.3487 12.4326 3.08015 12.4326H4.27392C4.54304 12.4326 4.93636 12.5774 5.14338 12.7568L6.23364 13.6949C6.70977 14.1019 7.48952 14.1019 7.97255 13.6949L9.06282 12.7568C9.26983 12.5774 9.65625 12.4326 9.93227 12.4326H11.1053C11.8368 12.4326 12.4371 11.8324 12.4371 11.1012V9.92849C12.4371 9.65946 12.582 9.26625 12.7614 9.0593L13.6999 7.96938C14.1001 7.4934 14.1001 6.70699 13.693 6.23101Z" fill="#017EF3"/>
<path d="M6.63542 9.12816L9.96833 5.79629C10.1684 5.59624 10.1684 5.26513 9.96833 5.06508C9.76821 4.86503 9.43699 4.86503 9.23688 5.06508L6.2697 8.03134L4.96551 6.72756C4.7654 6.52751 4.43418 6.52751 4.23407 6.72756C4.03396 6.92761 4.03396 7.25873 4.23407 7.45878L5.90397 9.12816C6.00058 9.22474 6.13169 9.27992 6.2697 9.27992C6.4077 9.27992 6.53881 9.22474 6.63542 9.12816Z" fill="white"/>
</svg>
