<svg width="17" height="17" viewBox="0 0 17 17" fill="none" xmlns="http://www.w3.org/2000/svg">
<g clip-path="url(#clip0_1289_4090)">
<path d="M15.7201 7.01248H9.48687V0.779117C9.48687 0.349112 9.13776 0 8.70761 0C8.27761 0 7.92849 0.349112 7.92849 0.779117V7.01248H1.69513C1.26513 7.01248 0.916016 7.36159 0.916016 7.79159C0.916016 8.22174 1.26513 8.57085 1.69513 8.57085H7.92849V14.8041C7.92849 15.2342 8.27761 15.5833 8.70761 15.5833C9.13776 15.5833 9.48687 15.2342 9.48687 14.8041V8.57085H15.7201C16.1502 8.57085 16.4993 8.22174 16.4993 7.79159C16.4993 7.36159 16.1502 7.01248 15.7201 7.01248Z" fill="white"/>
</g>
<defs>
<clipPath id="clip0_1289_4090">
<rect width="16.5" height="16.5" fill="white"/>
</clipPath>
</defs>
</svg>
