<svg width="20" height="23" viewBox="0 0 20 23" fill="none" xmlns="http://www.w3.org/2000/svg">
<path d="M14 15.1198C14.6904 15.1198 15.25 14.519 15.25 13.7779C15.25 13.0368 14.6904 12.436 14 12.436C13.3096 12.436 12.75 13.0368 12.75 13.7779C12.75 14.519 13.3096 15.1198 14 15.1198Z" fill="white"/>
<path d="M7.25 9.4838C7.25 8.74269 6.69036 8.1419 6 8.1419C5.30964 8.1419 4.75 8.74269 4.75 9.4838C4.75 10.2249 5.30964 10.8257 6 10.8257C6.69036 10.8257 7.25 10.2249 7.25 9.4838Z" fill="white"/>
<path fill-rule="evenodd" clip-rule="evenodd" d="M10 22.3661C5.28595 22.3661 2.92893 22.3661 1.46447 20.7939C0 19.2218 0 16.6915 0 11.6308C0 6.57022 0 4.0399 1.46447 2.46777C2.92893 0.89563 5.28595 0.89563 10 0.89563C14.714 0.89563 17.0711 0.89563 18.5355 2.46777C20 4.0399 20 6.57022 20 11.6308C20 16.6915 20 19.2218 18.5355 20.7939C17.0711 22.3661 14.714 22.3661 10 22.3661ZM16.75 13.7779C16.75 15.4083 15.5188 16.7301 14 16.7301C12.4812 16.7301 11.25 15.4083 11.25 13.7779C11.25 12.1474 12.4812 10.8257 14 10.8257C15.5188 10.8257 16.75 12.1474 16.75 13.7779ZM6 6.53162C7.51878 6.53162 8.75 7.85336 8.75 9.4838C8.75 11.1143 7.51878 12.436 6 12.436C4.48122 12.436 3.25 11.1143 3.25 9.4838C3.25 7.85336 4.48122 6.53162 6 6.53162ZM14 10.2889C13.5858 10.2889 13.25 9.92847 13.25 9.4838V4.1162C13.25 3.67153 13.5858 3.31105 14 3.31105C14.4142 3.31105 14.75 3.67153 14.75 4.1162V9.4838C14.75 9.92847 14.4142 10.2889 14 10.2889ZM5.25 13.7779C5.25 13.3332 5.58579 12.9728 6 12.9728C6.41421 12.9728 6.75 13.3332 6.75 13.7779L6.75 19.1455C6.75 19.5902 6.41421 19.9506 6 19.9506C5.58579 19.9506 5.25 19.5902 5.25 19.1455L5.25 13.7779ZM14 19.9506C13.5858 19.9506 13.25 19.5902 13.25 19.1455V18.072C13.25 17.6273 13.5858 17.2668 14 17.2668C14.4142 17.2668 14.75 17.6273 14.75 18.072V19.1455C14.75 19.5902 14.4142 19.9506 14 19.9506ZM5.25 4.1162C5.25 3.67153 5.58579 3.31105 6 3.31105C6.41421 3.31105 6.75 3.67153 6.75 4.1162V5.18972C6.75 5.63438 6.41421 5.99486 6 5.99486C5.58579 5.99486 5.25 5.63438 5.25 5.18972V4.1162Z" fill="white"/>
</svg>
