<svg width="40" height="40" viewBox="0 0 40 40" fill="none" xmlns="http://www.w3.org/2000/svg">
<path fill-rule="evenodd" clip-rule="evenodd" d="M37.0711 2.9289C34.1421 1.66893e-06 29.4281 0 20 0C10.5719 0 5.8579 1.66893e-06 2.9289 2.9289C1.66893e-06 5.8579 0 10.5719 0 20C0 29.4281 1.66893e-06 34.1421 2.9289 37.0711C5.8579 40 10.5719 40 20 40C29.4281 40 34.1421 40 37.0711 37.0711C40 34.1421 40 29.4281 40 20C40 10.5719 40 5.8579 37.0711 2.9289ZM24.0607 12.9393C24.6464 13.5251 24.6464 14.4749 24.0607 15.0607L19.1213 20L24.0607 24.9393C24.6464 25.5251 24.6464 26.4749 24.0607 27.0607C23.4749 27.6464 22.5251 27.6464 21.9393 27.0607L15.9393 21.0607C15.658 20.7794 15.5 20.3978 15.5 20C15.5 19.6022 15.658 19.2206 15.9393 18.9393L21.9393 12.9393C22.5251 12.3536 23.4749 12.3536 24.0607 12.9393Z" fill="#6247AA"/>
</svg>
