<svg width="18" height="18" viewBox="0 0 18 18" fill="none" xmlns="http://www.w3.org/2000/svg">
<path fill-rule="evenodd" clip-rule="evenodd" d="M8.625 16.5C4.91269 16.5 3.05653 16.5 1.90327 15.3467C0.75 14.1935 0.75 12.3373 0.75 8.625C0.75 4.91269 0.75 3.05653 1.90327 1.90327C3.05653 0.75 4.91269 0.75 8.625 0.75C12.3373 0.75 14.1935 0.75 15.3467 1.90327C16.5 3.05653 16.5 4.91269 16.5 8.625C16.5 12.3373 16.5 14.1935 15.3467 15.3467C14.1935 16.5 12.3373 16.5 8.625 16.5ZM8.625 5.67188C8.95119 5.67188 9.21562 5.93631 9.21562 6.2625V8.03439H10.9875C11.3137 8.03439 11.5781 8.29883 11.5781 8.62502C11.5781 8.95121 11.3137 9.21564 10.9875 9.21564H9.21562V10.9875C9.21562 11.3137 8.95119 11.5781 8.625 11.5781C8.29881 11.5781 8.03437 11.3137 8.03437 10.9875V9.21564H6.2625C5.93631 9.21564 5.67188 8.95121 5.67188 8.62502C5.67188 8.29883 5.93631 8.03439 6.2625 8.03439H8.03437L8.03438 6.2625C8.03438 5.93631 8.29881 5.67188 8.625 5.67188Z" fill="black" fill-opacity="0.8"/>
</svg>
