<svg width="16" height="16" viewBox="0 0 16 16" fill="none" xmlns="http://www.w3.org/2000/svg">
<path fill-rule="evenodd" clip-rule="evenodd" d="M7.66666 14.6666C4.36682 14.6666 2.71691 14.6666 1.69178 13.6415C0.666656 12.6164 0.666656 10.9665 0.666656 7.66663C0.666656 4.36679 0.666656 2.71688 1.69178 1.69175C2.71691 0.666626 4.36682 0.666626 7.66666 0.666626C10.9665 0.666626 12.6164 0.666626 13.6415 1.69175C14.6667 2.71688 14.6667 4.36679 14.6667 7.66663C14.6667 10.9665 14.6667 12.6164 13.6415 13.6415C12.6164 14.6666 10.9665 14.6666 7.66666 14.6666ZM7.66666 5.04163C7.95661 5.04163 8.19166 5.27668 8.19166 5.56663V7.14164H9.76666C10.0566 7.14164 10.2917 7.37669 10.2917 7.66664C10.2917 7.95659 10.0566 8.19164 9.76666 8.19164H8.19166L8.19166 9.76663C8.19166 10.0566 7.95661 10.2916 7.66666 10.2916C7.37671 10.2916 7.14166 10.0566 7.14166 9.76663V8.19164H5.56666C5.27671 8.19164 5.04166 7.95659 5.04166 7.66664C5.04166 7.37669 5.27671 7.14164 5.56666 7.14164H7.14166L7.14166 5.56663C7.14166 5.27668 7.37671 5.04163 7.66666 5.04163Z" fill="white"/>
</svg>
