<svg width="24" height="24" viewBox="0 0 24 24" fill="none" xmlns="http://www.w3.org/2000/svg">
<path fill-rule="evenodd" clip-rule="evenodd" d="M22 11.5C22 17.299 17.299 22 11.5 22C5.70101 22 1 17.299 1 11.5C1 5.70101 5.70101 1 11.5 1C17.299 1 22 5.70101 22 11.5ZM8.31811 8.31813C8.62565 8.01059 9.12426 8.01059 9.4318 8.31813L11.5 10.3863L13.5681 8.31815C13.8756 8.01062 14.3743 8.01062 14.6818 8.31815C14.9893 8.62569 14.9893 9.12431 14.6818 9.43185L12.6137 11.5L14.6818 13.5681C14.9893 13.8756 14.9893 14.3743 14.6818 14.6818C14.3742 14.9893 13.8756 14.9893 13.5681 14.6818L11.5 12.6137L9.43182 14.6818C9.12429 14.9894 8.62567 14.9894 8.31813 14.6818C8.01059 14.3743 8.01059 13.8757 8.31813 13.5681L10.3863 11.5L8.31811 9.43182C8.01057 9.12429 8.01057 8.62567 8.31811 8.31813Z" fill="#1A072C"/>
</svg>
