<svg width="20" height="20" viewBox="0 0 20 20" fill="none" xmlns="http://www.w3.org/2000/svg">
<path fill-rule="evenodd" clip-rule="evenodd" d="M0.335366 5.87495C-0.205094 7.00229 -0.0153722 8.32081 0.364072 10.9579L0.642838 12.8952C1.13025 16.2827 1.37396 17.9764 2.54903 18.9882C3.72409 20 5.44737 20 8.89393 20H11.1061C14.5526 20 16.2759 20 17.451 18.9882C18.626 17.9764 18.8697 16.2827 19.3572 12.8952L19.6359 10.9579C20.0154 8.32082 20.2051 7.00229 19.6646 5.87495C19.1242 4.7476 17.9738 4.06234 15.6731 2.69181L14.2882 1.86687C12.199 0.62229 11.1543 0 10 0C8.84569 0 7.80104 0.62229 5.71175 1.86687L4.32691 2.69181C2.02619 4.06234 0.875827 4.7476 0.335366 5.87495ZM6.2501 15.9998C6.2501 15.5856 6.58589 15.2498 7.0001 15.2498H13.0001C13.4143 15.2498 13.7501 15.5856 13.7501 15.9998C13.7501 16.414 13.4143 16.7498 13.0001 16.7498H7.0001C6.58589 16.7498 6.2501 16.414 6.2501 15.9998Z" fill="white"/>
</svg>
