<svg width="36" height="26" viewBox="0 0 36 26" fill="none" xmlns="http://www.w3.org/2000/svg">
<path d="M7.308 12.7618C7.308 13.8898 7.476 14.8498 7.812 15.6418C8.148 16.4338 8.724 17.1058 9.54 17.6578C10.38 18.1858 11.544 18.5818 13.032 18.8458C14.544 19.0858 16.452 19.2058 18.756 19.2058C20.652 19.2058 22.536 19.1098 24.408 18.9178C26.28 18.7258 28.08 18.4858 29.808 18.1978C31.536 17.9098 33.096 17.6338 34.488 17.3698L35.784 23.4538C34.128 23.8378 32.34 24.1858 30.42 24.4978C28.5 24.7858 26.532 25.0138 24.516 25.1818C22.5 25.3738 20.496 25.4698 18.504 25.4698C15.144 25.4698 12.288 25.1938 9.936 24.6418C7.584 24.0898 5.676 23.2858 4.212 22.2298C2.748 21.1498 1.68 19.8178 1.008 18.2338C0.336 16.6498 0 14.8258 0 12.7618C0 10.7218 0.336 8.90984 1.008 7.32584C1.68 5.74184 2.748 4.42184 4.212 3.36584C5.676 2.28584 7.584 1.46984 9.936 0.917844C12.288 0.365844 15.144 0.0898438 18.504 0.0898438C20.496 0.0898438 22.5 0.173843 24.516 0.341843C26.532 0.509843 28.5 0.749844 30.42 1.06184C32.34 1.37384 34.128 1.72184 35.784 2.10584L34.488 8.18984C33.096 7.90184 31.536 7.62584 29.808 7.36184C28.08 7.07384 26.28 6.83384 24.408 6.64184C22.536 6.44984 20.652 6.35384 18.756 6.35384C16.452 6.35384 14.544 6.48584 13.032 6.74984C11.544 6.98984 10.38 7.37384 9.54 7.90184C8.724 8.42984 8.148 9.10184 7.812 9.91784C7.476 10.7098 7.308 11.6578 7.308 12.7618Z" fill="white"/>
</svg>
