<svg width="4" height="18" viewBox="0 0 4 18" fill="none" xmlns="http://www.w3.org/2000/svg">
<path d="M2 4C0.89543 4 -1.35705e-07 3.10457 -8.74228e-08 2C-3.91405e-08 0.89543 0.895431 -1.35705e-07 2 -8.74228e-08C3.10457 -3.91405e-08 4 0.89543 4 2C4 3.10457 3.10457 4 2 4Z" fill="#758195"/>
<path d="M2 11C0.89543 11 -4.41685e-07 10.1046 -3.93402e-07 9C-3.4512e-07 7.89543 0.89543 7 2 7C3.10457 7 4 7.89543 4 9C4 10.1046 3.10457 11 2 11Z" fill="#758195"/>
<path d="M2 18C0.89543 18 -7.47665e-07 17.1046 -6.99382e-07 16C-6.511e-07 14.8954 0.89543 14 2 14C3.10457 14 4 14.8954 4 16C4 17.1046 3.10457 18 2 18Z" fill="#758195"/>
</svg>
