<svg width="40" height="40" viewBox="0 0 40 40" fill="none" xmlns="http://www.w3.org/2000/svg">
<path fill-rule="evenodd" clip-rule="evenodd" d="M2.9289 37.0711C5.8579 40 10.5719 40 20 40C29.4281 40 34.1421 40 37.0711 37.0711C40 34.1421 40 29.4281 40 20C40 10.5719 40 5.85791 37.0711 2.92891C34.1421 5.48363e-06 29.4281 3.8147e-06 20 3.8147e-06C10.5719 3.8147e-06 5.8579 5.48363e-06 2.9289 2.92891C-2.14577e-06 5.85791 -3.8147e-06 10.5719 -3.8147e-06 20C-3.8147e-06 29.4281 -2.14577e-06 34.1421 2.9289 37.0711ZM15.9393 27.0607C15.3536 26.4749 15.3536 25.5251 15.9393 24.9393L20.8787 20L15.9393 15.0607C15.3536 14.4749 15.3536 13.5251 15.9393 12.9393C16.5251 12.3536 17.4749 12.3536 18.0607 12.9393L24.0607 18.9393C24.342 19.2206 24.5 19.6022 24.5 20C24.5 20.3978 24.342 20.7794 24.0607 21.0607L18.0607 27.0607C17.4749 27.6464 16.5251 27.6464 15.9393 27.0607Z" fill="#EAE5EE"/>
</svg>
