<svg width="51" height="39" viewBox="0 0 51 39" fill="none" xmlns="http://www.w3.org/2000/svg">
<path d="M8.0929 26.2451H0.998289C0.447119 26.2451 0 26.6938 0 27.2418V37.9951C0 38.5454 0.449346 38.9918 0.998289 38.9918H8.09063C8.6418 38.9918 9.08892 38.5432 9.08892 37.9951V27.2418C9.08892 26.6915 8.63958 26.2451 8.09063 26.2451H8.0929ZM7.09461 28.2406V36.9981L1.99907 37.0003V28.2428H7.0924L7.09461 28.2406ZM50.0017 16.7117H42.9116C42.3605 16.7117 41.9133 17.1603 41.9133 17.7083V37.997C41.9133 38.5473 42.3627 38.9937 42.9116 38.9937H50.0017C50.5529 38.9937 51 38.545 51 37.997V17.7083C51 17.1581 50.5507 16.7117 50.0017 16.7117ZM49.0034 18.7072V37.0005H43.9123L43.9101 18.7072H49.0034ZM36.0342 26.2449H28.9441C28.393 26.2449 27.9459 26.6935 27.9459 27.2416V37.9949C27.9459 38.5452 28.3952 38.9916 28.9441 38.9916H36.0342C36.5854 38.9916 37.0325 38.543 37.0325 37.9949V27.2416C37.0325 26.6913 36.5832 26.2449 36.0342 26.2449ZM35.0359 28.2404V36.9979H29.9448V28.2404H35.0359ZM4.54667 22.1277C6.72033 22.1277 8.48894 20.362 8.48894 18.192C8.48894 17.6086 8.35613 17.0273 8.106 16.5014L16.245 9.64646C16.9113 10.1194 17.6926 10.3669 18.516 10.3669C19.3372 10.3669 20.1186 10.1194 20.7871 9.64646L28.9261 16.4991C28.6759 17.0251 28.5431 17.6063 28.5431 18.1897C28.5431 20.3598 30.3117 22.1255 32.4854 22.1255C34.6613 22.1255 36.4299 20.3598 36.4299 18.1897C36.4299 17.4737 36.2351 16.7776 35.8677 16.1655L44.507 7.35029C45.1002 7.6884 45.7731 7.8674 46.4593 7.8674C48.633 7.8674 50.4016 6.1017 50.4016 3.92942C50.4016 1.75934 48.633 -0.00634766 46.4593 -0.00634766C44.2834 -0.00634766 42.5148 1.75934 42.5148 3.92942C42.5148 4.64541 42.7096 5.34374 43.0793 5.95586L34.4399 14.771C33.8445 14.4307 33.1738 14.2517 32.4876 14.2517C31.6664 14.2517 30.8828 14.5014 30.2165 14.9743L22.0798 8.12165C22.3322 7.5957 22.4628 7.01452 22.4628 6.43109C22.4628 4.26101 20.6942 2.49532 18.5183 2.49532C16.3446 2.49532 14.576 4.26101 14.576 6.43109C14.576 7.01447 14.7089 7.59569 14.959 8.12165L6.82001 14.9743C6.15152 14.5014 5.37014 14.2517 4.54894 14.2517C2.37528 14.2517 0.606669 16.0174 0.606669 18.1897C0.606669 20.3598 2.37528 22.1255 4.54894 22.1255L4.54667 22.1277ZM4.54667 16.2492C5.618 16.2492 6.49015 17.12 6.49015 18.1917C6.49015 19.2613 5.618 20.132 4.54667 20.132C3.47534 20.132 2.60319 19.2613 2.60319 18.1917C2.60319 17.12 3.47534 16.2492 4.54667 16.2492ZM18.516 4.49285C19.5896 4.49285 20.4617 5.36356 20.4617 6.43313C20.4617 7.50269 19.5896 8.37341 18.516 8.37341C17.4447 8.37341 16.5725 7.50269 16.5725 6.43313C16.5725 5.36356 17.4447 4.49285 18.516 4.49285ZM46.4576 1.99126C47.5289 1.99126 48.4011 2.86197 48.4011 3.93154C48.4011 5.00331 47.5289 5.87402 46.4576 5.87402C45.384 5.87402 44.5119 5.00331 44.5119 3.93154C44.5119 2.86197 45.384 1.99126 46.4576 1.99126ZM32.486 20.1319C31.4146 20.1319 30.5425 19.2612 30.5425 18.1916C30.5425 17.1198 31.4146 16.2491 32.486 16.2491C33.5595 16.2491 34.4316 17.1198 34.4316 18.1916C34.4316 19.2612 33.5595 20.1319 32.486 20.1319ZM22.0622 18.3839H14.9721C14.421 18.3839 13.9738 18.8325 13.9738 19.3805V37.9964C13.9738 38.5466 14.4232 38.993 14.9721 38.993H22.0622C22.6134 38.993 23.0605 38.5444 23.0605 37.9964V19.3805C23.0605 18.8303 22.6111 18.3839 22.0622 18.3839ZM21.0639 20.3794V36.9999H15.9728V20.3794H21.0639Z" fill="#78276E"/>
</svg>
