<svg width="20" height="20" viewBox="0 0 20 20" fill="none" xmlns="http://www.w3.org/2000/svg">
<path fill-rule="evenodd" clip-rule="evenodd" d="M10.3868 1.66797C8.25402 1.66797 6.52504 3.39695 6.52504 5.52976C6.52504 7.66256 8.25402 9.39155 10.3868 9.39155C12.5196 9.39155 14.2486 7.66256 14.2486 5.52976C14.2486 3.39695 12.5196 1.66797 10.3868 1.66797ZM7.74455 5.52976C7.74455 4.07047 8.92754 2.88748 10.3868 2.88748C11.8461 2.88748 13.0291 4.07047 13.0291 5.52976C13.0291 6.98905 11.8461 8.17203 10.3868 8.17203C8.92754 8.17203 7.74455 6.98905 7.74455 5.52976Z" fill="#1A072C"/>
<path d="M15.2649 3.29399C14.9281 3.29399 14.6551 3.56698 14.6551 3.90374C14.6551 4.2405 14.9281 4.5135 15.2649 4.5135C16.384 4.5135 17.0941 5.24986 17.0941 5.93626C17.0941 6.62266 16.384 7.35903 15.2649 7.35903C14.9281 7.35903 14.6551 7.63202 14.6551 7.96878C14.6551 8.30554 14.9281 8.57854 15.2649 8.57854C16.8399 8.57854 18.3137 7.49492 18.3137 5.93626C18.3137 4.3776 16.8399 3.29399 15.2649 3.29399Z" fill="#1A072C"/>
<path d="M6.11854 3.90374C6.11854 3.56698 5.84554 3.29399 5.50878 3.29399C3.9338 3.29399 2.46 4.3776 2.46 5.93626C2.46 7.49492 3.9338 8.57854 5.50878 8.57854C5.84554 8.57854 6.11854 8.30554 6.11854 7.96878C6.11854 7.63202 5.84554 7.35903 5.50878 7.35903C4.38969 7.35903 3.67951 6.62266 3.67951 5.93626C3.67951 5.24986 4.38969 4.5135 5.50878 4.5135C5.84554 4.5135 6.11854 4.2405 6.11854 3.90374Z" fill="#1A072C"/>
<path fill-rule="evenodd" clip-rule="evenodd" d="M10.3868 10.6111C8.9362 10.6111 7.59533 11.0019 6.5993 11.666C5.60753 12.3271 4.89902 13.3075 4.89902 14.4728C4.89902 15.6382 5.60753 16.6186 6.5993 17.2797C7.59533 17.9438 8.9362 18.3346 10.3868 18.3346C11.8375 18.3346 13.1783 17.9438 14.1744 17.2797C15.1661 16.6186 15.8746 15.6382 15.8746 14.4728C15.8746 13.3075 15.1661 12.3271 14.1744 11.666C13.1783 11.0019 11.8375 10.6111 10.3868 10.6111ZM6.11854 14.4728C6.11854 13.8421 6.50202 13.1965 7.27576 12.6807C8.04524 12.1677 9.14338 11.8306 10.3868 11.8306C11.6303 11.8306 12.7284 12.1677 13.4979 12.6807C14.2716 13.1965 14.6551 13.8421 14.6551 14.4728C14.6551 15.1036 14.2716 15.7492 13.4979 16.265C12.7284 16.778 11.6303 17.1151 10.3868 17.1151C9.14338 17.1151 8.04524 16.778 7.27576 16.265C6.50202 15.7492 6.11854 15.1036 6.11854 14.4728Z" fill="#1A072C"/>
<path d="M16.2953 11.9032C16.3674 11.5743 16.6926 11.3661 17.0215 11.4382C17.8035 11.6097 18.5082 11.9195 19.0314 12.3476C19.5541 12.7753 19.9397 13.3633 19.9397 14.0663C19.9397 14.7694 19.5541 15.3574 19.0314 15.7851C18.5082 16.2132 17.8035 16.523 17.0215 16.6945C16.6926 16.7666 16.3674 16.5584 16.2953 16.2295C16.2232 15.9005 16.4313 15.5754 16.7603 15.5033C17.4045 15.362 17.9193 15.1193 18.2591 14.8413C18.5993 14.5629 18.7202 14.291 18.7202 14.0663C18.7202 13.8417 18.5993 13.5698 18.2591 13.2914C17.9193 13.0133 17.4045 12.7707 16.7603 12.6294C16.4313 12.5573 16.2232 12.2322 16.2953 11.9032Z" fill="#1A072C"/>
<path d="M3.75215 11.4382C4.08109 11.3661 4.40623 11.5743 4.47837 11.9032C4.5505 12.2322 4.34232 12.5573 4.01338 12.6294C3.36918 12.7707 2.85435 13.0133 2.51457 13.2914C2.17433 13.5698 2.0535 13.8417 2.0535 14.0663C2.0535 14.291 2.17433 14.5629 2.51457 14.8413C2.85435 15.1193 3.36918 15.362 4.01338 15.5033C4.34232 15.5754 4.5505 15.9005 4.47837 16.2295C4.40623 16.5584 4.08109 16.7666 3.75215 16.6945C2.97013 16.523 2.26545 16.2132 1.74227 15.7851C1.21955 15.3574 0.833984 14.7694 0.833984 14.0663C0.833984 13.3633 1.21955 12.7753 1.74227 12.3476C2.26545 11.9195 2.97013 11.6097 3.75215 11.4382Z" fill="#1A072C"/>
</svg>
