<svg width="20" height="20" viewBox="0 0 20 20" fill="none" xmlns="http://www.w3.org/2000/svg">
<path fill-rule="evenodd" clip-rule="evenodd" d="M10.3849 1.66699C8.25207 1.66699 6.52309 3.39597 6.52309 5.52878C6.52309 7.66159 8.25207 9.39057 10.3849 9.39057C12.5177 9.39057 14.2467 7.66159 14.2467 5.52878C14.2467 3.39597 12.5177 1.66699 10.3849 1.66699ZM7.7426 5.52878C7.7426 4.06949 8.92559 2.8865 10.3849 2.8865C11.8442 2.8865 13.0272 4.06949 13.0272 5.52878C13.0272 6.98807 11.8442 8.17106 10.3849 8.17106C8.92559 8.17106 7.7426 6.98807 7.7426 5.52878Z" fill="#343559"/>
<path d="M15.2629 3.29301C14.9262 3.29301 14.6532 3.56601 14.6532 3.90276C14.6532 4.23952 14.9262 4.51252 15.2629 4.51252C16.382 4.51252 17.0922 5.24889 17.0922 5.93529C17.0922 6.62168 16.382 7.35805 15.2629 7.35805C14.9262 7.35805 14.6532 7.63105 14.6532 7.96781C14.6532 8.30456 14.9262 8.57756 15.2629 8.57756C16.8379 8.57756 18.3117 7.49395 18.3117 5.93529C18.3117 4.37662 16.8379 3.29301 15.2629 3.29301Z" fill="#343559"/>
<path d="M6.11658 3.90276C6.11658 3.56601 5.84359 3.29301 5.50683 3.29301C3.93185 3.29301 2.45805 4.37662 2.45805 5.93529C2.45805 7.49395 3.93185 8.57756 5.50683 8.57756C5.84359 8.57756 6.11658 8.30456 6.11658 7.96781C6.11658 7.63105 5.84359 7.35805 5.50683 7.35805C4.38773 7.35805 3.67756 6.62168 3.67756 5.93529C3.67756 5.24889 4.38773 4.51252 5.50683 4.51252C5.84359 4.51252 6.11658 4.23952 6.11658 3.90276Z" fill="#343559"/>
<path fill-rule="evenodd" clip-rule="evenodd" d="M10.3849 10.6101C8.93425 10.6101 7.59337 11.001 6.59734 11.665C5.60558 12.3262 4.89707 13.3065 4.89707 14.4719C4.89707 15.6372 5.60558 16.6176 6.59734 17.2788C7.59337 17.9428 8.93425 18.3337 10.3849 18.3337C11.8355 18.3337 13.1764 17.9428 14.1724 17.2788C15.1642 16.6176 15.8727 15.6372 15.8727 14.4719C15.8727 13.3065 15.1642 12.3262 14.1724 11.665C13.1764 11.001 11.8355 10.6101 10.3849 10.6101ZM6.11658 14.4719C6.11658 13.8412 6.50007 13.1955 7.27381 12.6797C8.04328 12.1667 9.14143 11.8296 10.3849 11.8296C11.6283 11.8296 12.7265 12.1667 13.4959 12.6797C14.2697 13.1955 14.6532 13.8412 14.6532 14.4719C14.6532 15.1026 14.2697 15.7482 13.4959 16.2641C12.7265 16.777 11.6283 17.1141 10.3849 17.1141C9.14143 17.1141 8.04328 16.777 7.27381 16.2641C6.50007 15.7482 6.11658 15.1026 6.11658 14.4719Z" fill="#343559"/>
<path d="M16.2933 11.9022C16.3655 11.5733 16.6906 11.3651 17.0196 11.4372C17.8016 11.6087 18.5063 11.9185 19.0294 12.3466C19.5522 12.7743 19.9377 13.3623 19.9377 14.0654C19.9377 14.7684 19.5522 15.3564 19.0294 15.7841C18.5063 16.2122 17.8016 16.522 17.0196 16.6935C16.6906 16.7656 16.3655 16.5574 16.2933 16.2285C16.2212 15.8996 16.4294 15.5744 16.7583 15.5023C17.4025 15.361 17.9174 15.1184 18.2571 14.8403C18.5974 14.5619 18.7182 14.29 18.7182 14.0654C18.7182 13.8407 18.5974 13.5688 18.2571 13.2904C17.9174 13.0124 17.4025 12.7697 16.7583 12.6284C16.4294 12.5563 16.2212 12.2312 16.2933 11.9022Z" fill="#343559"/>
<path d="M3.7502 11.4372C4.07914 11.3651 4.40428 11.5733 4.47641 11.9022C4.54855 12.2312 4.34037 12.5563 4.01142 12.6284C3.36723 12.7697 2.8524 13.0124 2.51262 13.2904C2.17238 13.5688 2.05154 13.8407 2.05154 14.0654C2.05154 14.29 2.17238 14.5619 2.51262 14.8403C2.8524 15.1184 3.36723 15.361 4.01142 15.5023C4.34037 15.5744 4.54855 15.8996 4.47641 16.2285C4.40428 16.5574 4.07914 16.7656 3.7502 16.6935C2.96818 16.522 2.2635 16.2122 1.74032 15.7841C1.2176 15.3564 0.832031 14.7684 0.832031 14.0654C0.832031 13.3623 1.2176 12.7743 1.74032 12.3466C2.2635 11.9185 2.96818 11.6087 3.7502 11.4372Z" fill="#343559"/>
</svg>
