<svg width="40" height="28" viewBox="0 0 40 28" fill="none" xmlns="http://www.w3.org/2000/svg">
<path d="M8.06218 13.9801C8.06218 15.2246 8.24752 16.2837 8.61819 17.1574C8.98887 18.0312 9.62431 18.7726 10.5245 19.3816C11.4512 19.9641 12.7353 20.4009 14.3769 20.6922C16.0449 20.957 18.1498 21.0894 20.6916 21.0894C22.7833 21.0894 24.8617 20.9835 26.9269 20.7716C28.9921 20.5598 30.9778 20.295 32.8842 19.9773C34.7905 19.6596 36.5115 19.3551 38.0471 19.0638L39.4769 25.7759C37.65 26.1995 35.6775 26.5835 33.5593 26.9277C31.4412 27.2454 29.2701 27.4969 27.046 27.6823C24.822 27.8941 22.6112 28 20.4136 28C16.7069 28 13.5561 27.6955 10.9614 27.0865C8.36666 26.4775 6.26176 25.5905 4.64668 24.4255C3.03159 23.234 1.85337 21.7645 1.11202 20.017C0.370675 18.2695 0 16.2572 0 13.9801C0 11.7296 0.370675 9.7305 1.11202 7.98298C1.85337 6.23546 3.03159 4.7792 4.64668 3.61419C6.26176 2.4227 8.36666 1.52246 10.9614 0.913475C13.5561 0.304492 16.7069 0 20.4136 0C22.6112 0 24.822 0.092671 27.046 0.278013C29.2701 0.463356 31.4412 0.728132 33.5593 1.07234C35.6775 1.41655 37.65 1.80047 39.4769 2.22411L38.0471 8.93617C36.5115 8.61844 34.7905 8.31395 32.8842 8.0227C30.9778 7.70496 28.9921 7.44019 26.9269 7.22837C24.8617 7.01655 22.7833 6.91064 20.6916 6.91064C18.1498 6.91064 16.0449 7.05626 14.3769 7.34752C12.7353 7.61229 11.4512 8.03593 10.5245 8.61844C9.62431 9.20095 8.98887 9.94232 8.61819 10.8426C8.24752 11.7163 8.06218 12.7622 8.06218 13.9801Z" fill="white"/>
</svg>
