<svg width="22" height="22" viewBox="0 0 22 22" fill="none" xmlns="http://www.w3.org/2000/svg">
<g clip-path="url(#clip0_1458_1444)">
<path fill-rule="evenodd" clip-rule="evenodd" d="M9.74996 1.49999C5.19363 1.49999 1.49999 5.19363 1.49999 9.74996C1.49999 14.3063 5.19363 17.9999 9.74996 17.9999C14.3063 17.9999 17.9999 14.3063 17.9999 9.74996C17.9999 5.19363 14.3063 1.49999 9.74996 1.49999ZM0 9.74996C0 4.3652 4.3652 0 9.74996 0C15.1347 0 19.4999 4.3652 19.4999 9.74996C19.4999 15.1347 15.1347 19.4999 9.74996 19.4999C4.3652 19.4999 0 15.1347 0 9.74996ZM18.9078 18.501C18.6763 18.4834 18.4834 18.6763 18.501 18.9078C18.5013 18.9091 18.5052 18.9347 18.5245 19.0072C18.5473 19.0923 18.5811 19.2054 18.6327 19.3776C18.68 19.5356 18.7108 19.638 18.7361 19.714C18.762 19.7918 18.7709 19.8067 18.767 19.7995C18.8725 19.9964 19.1244 20.0599 19.3106 19.9366C19.3037 19.9412 19.3187 19.9323 19.3784 19.8761C19.4367 19.8211 19.5123 19.7456 19.629 19.629C19.7456 19.5123 19.8211 19.4367 19.8761 19.3784C19.9226 19.3289 19.9367 19.3101 19.9376 19.3091C20.0593 19.1235 19.9962 18.8735 19.8011 18.7679C19.7999 18.7674 19.7786 18.7576 19.714 18.7361C19.638 18.7108 19.5356 18.68 19.3776 18.6327C19.2054 18.5811 19.0923 18.5473 19.0072 18.5245C18.9347 18.5052 18.9091 18.5013 18.9078 18.501ZM17.0063 19.0332C16.9111 17.8766 17.8766 16.9111 19.0332 17.0063C19.2332 17.0228 19.4751 17.0956 19.7361 17.1742C19.76 17.1813 19.784 17.1886 19.8082 17.1958C19.83 17.2024 19.8517 17.2088 19.8733 17.2153C20.1131 17.2868 20.338 17.3539 20.5075 17.4447C21.4834 17.9672 21.7984 19.2159 21.1872 20.1388C21.0811 20.2991 20.9149 20.4649 20.7377 20.6416C20.7218 20.6575 20.7057 20.6735 20.6896 20.6896C20.6735 20.7057 20.6575 20.7218 20.6416 20.7377C20.4649 20.9149 20.2991 21.0811 20.1388 21.1872C19.2158 21.7984 17.9672 21.4834 17.4447 20.5075C17.3539 20.338 17.2868 20.1131 17.2153 19.8733C17.2088 19.8517 17.2024 19.83 17.1958 19.8082C17.1886 19.784 17.1814 19.76 17.1742 19.7361C17.0956 19.4751 17.0228 19.2332 17.0063 19.0332Z" fill="#1A072C" fill-opacity="0.5"/>
</g>
<defs>
<clipPath id="clip0_1458_1444">
<rect width="22" height="22" fill="white"/>
</clipPath>
</defs>
</svg>
