<svg width="22" height="22" viewBox="0 0 22 22" fill="none" xmlns="http://www.w3.org/2000/svg">
<path fill-rule="evenodd" clip-rule="evenodd" d="M9.75005 1.49999C5.19372 1.49999 1.50008 5.19363 1.50008 9.74996C1.50008 14.3063 5.19372 17.9999 9.75005 17.9999C14.3064 17.9999 18 14.3063 18 9.74996C18 5.19363 14.3064 1.49999 9.75005 1.49999ZM9.15527e-05 9.74996C9.15527e-05 4.3652 4.36529 0 9.75005 0C15.1348 0 19.5 4.3652 19.5 9.74996C19.5 15.1347 15.1348 19.4999 9.75005 19.4999C4.36529 19.4999 9.15527e-05 15.1347 9.15527e-05 9.74996ZM18.9079 18.501C18.6764 18.4834 18.4835 18.6763 18.5011 18.9078C18.5014 18.9091 18.5053 18.9347 18.5246 19.0072C18.5474 19.0923 18.5812 19.2054 18.6328 19.3776C18.6801 19.5356 18.7109 19.638 18.7362 19.714C18.7621 19.7918 18.771 19.8067 18.7671 19.7995C18.8725 19.9964 19.1245 20.0599 19.3107 19.9366C19.3038 19.9412 19.3188 19.9323 19.3784 19.8761C19.4368 19.8211 19.5124 19.7456 19.6291 19.629C19.7457 19.5123 19.8212 19.4367 19.8761 19.3784C19.9227 19.3289 19.9368 19.3101 19.9377 19.3091C20.0593 19.1235 19.9963 18.8735 19.8011 18.7679C19.7999 18.7674 19.7787 18.7576 19.7141 18.7361C19.6381 18.7108 19.5357 18.68 19.3777 18.6327C19.2054 18.5811 19.0924 18.5473 19.0073 18.5245C18.9348 18.5052 18.9091 18.5013 18.9079 18.501ZM17.0064 19.0332C16.9112 17.8766 17.8767 16.9111 19.0333 17.0063C19.2333 17.0228 19.4751 17.0956 19.7362 17.1742C19.7601 17.1813 19.7841 17.1886 19.8083 17.1958C19.8301 17.2024 19.8518 17.2088 19.8734 17.2153C20.1132 17.2868 20.3381 17.3539 20.5076 17.4447C21.4835 17.9672 21.7985 19.2159 21.1873 20.1388C21.0812 20.2991 20.915 20.4649 20.7378 20.6416C20.7219 20.6575 20.7058 20.6735 20.6897 20.6896C20.6736 20.7057 20.6576 20.7218 20.6417 20.7377C20.4649 20.9149 20.2992 21.0811 20.1389 21.1872C19.2159 21.7984 17.9673 21.4834 17.4448 20.5075C17.354 20.338 17.2869 20.1131 17.2154 19.8733C17.2089 19.8517 17.2024 19.83 17.1959 19.8082C17.1887 19.784 17.1814 19.76 17.1743 19.7361C17.0957 19.4751 17.0228 19.2332 17.0064 19.0332Z" fill="black" fill-opacity="0.5"/>
</svg>
