<svg width="18" height="22" viewBox="0 0 18 22" fill="none" xmlns="http://www.w3.org/2000/svg">
<path d="M5.35179 19.6417C6.19288 20.7895 7.51418 21.5292 9 21.5292C10.4858 21.5292 11.8071 20.7895 12.6482 19.6417C10.2264 19.994 7.77357 19.994 5.35179 19.6417Z" fill="white"/>
<path fill-rule="evenodd" clip-rule="evenodd" d="M15.7491 8.32924V7.57337C15.7491 3.42314 12.7274 0.0587158 9 0.0587158C5.27256 0.0587158 2.25087 3.42314 2.25087 7.57337V8.32924C2.25087 9.23635 2.00972 10.1232 1.5578 10.8779L0.450359 12.7275C-0.561177 14.4169 0.211046 16.7132 1.97036 17.2475C6.57274 18.645 11.4273 18.645 16.0296 17.2475C17.789 16.7132 18.5612 14.4169 17.5496 12.7275L16.4422 10.8779C15.9903 10.1232 15.7491 9.23635 15.7491 8.32924ZM9 3.54766C9.41421 3.54766 9.75 3.90814 9.75 4.3528V8.64689C9.75 9.09156 9.41421 9.45203 9 9.45203C8.58579 9.45203 8.25 9.09156 8.25 8.64689V4.3528C8.25 3.90814 8.58579 3.54766 9 3.54766Z" fill="white"/>
</svg>
