<svg width="45" height="44" viewBox="0 0 45 44" fill="none" xmlns="http://www.w3.org/2000/svg">
<path d="M24.9242 14.1008C25.3387 14.2915 25.8361 14.1091 26.0267 13.6946C26.2173 13.2801 26.0267 12.7827 25.6205 12.5921C21.2104 10.5694 15.9383 11.5228 12.4898 14.963C7.93049 19.5223 7.93049 26.9498 12.4898 31.5092C14.7031 33.7226 17.6376 34.9412 20.7629 34.9412C23.8882 34.9412 26.8227 33.7226 29.0361 31.5092C32.4763 28.069 33.4295 22.7883 31.4069 18.3785C31.2162 17.9641 30.7189 17.7817 30.3044 17.9723C29.89 18.163 29.7076 18.6521 29.8982 19.0748C31.639 22.8549 30.8184 27.3809 27.859 30.3402C25.9607 32.2385 23.4406 33.283 20.7546 33.283C18.0685 33.283 15.5487 32.2385 13.6502 30.3402C9.73753 26.4275 9.73753 20.0526 13.6502 16.1399C16.6013 13.1888 21.1355 12.3682 24.9156 14.1007L24.9242 14.1008Z" fill="#9B6402"/>
<path d="M10.4597 33.5401C4.78136 27.8618 4.78136 18.6188 10.4597 12.9321C14.1154 9.27636 19.4952 7.82567 24.5023 9.16028C24.9417 9.27633 25.3976 9.01107 25.5137 8.57171C25.6297 8.13234 25.3644 7.67643 24.9251 7.5604C19.3545 6.07655 13.361 7.69304 9.28283 11.7632C2.95781 18.0883 2.95781 28.3838 9.28283 34.7173C12.4495 37.8839 16.6026 39.4672 20.7556 39.4672C24.9086 39.4672 29.0701 37.8839 32.2284 34.7173C36.3069 30.6388 37.9152 24.6456 36.4312 19.075C36.3152 18.6357 35.8593 18.3704 35.4199 18.4865C34.9806 18.6025 34.7153 19.0584 34.8314 19.4978C36.166 24.4964 34.7153 29.8846 31.0596 33.5405C25.3813 39.2188 16.1298 39.2188 10.4515 33.5405L10.4597 33.5401Z" fill="#9B6402"/>
<path d="M39.0851 15.3696C38.6541 15.5354 38.4469 16.0079 38.6044 16.4389C41.2819 23.46 39.5742 31.4265 34.2606 36.7403C30.6546 40.3463 25.8548 42.3359 20.7569 42.3359C15.659 42.3359 10.8593 40.3464 7.25327 36.7403C3.64723 33.1343 1.65773 28.3346 1.65773 23.2367C1.65773 18.1388 3.64723 13.339 7.25327 9.73299C12.5671 4.41917 20.5331 2.71191 27.5547 5.38925C27.9774 5.54676 28.4582 5.33951 28.624 4.90846C28.7898 4.4774 28.5743 4.0049 28.1432 3.83911C20.5168 0.929455 11.8542 2.77805 6.0762 8.55587C2.15524 12.4768 0 17.6911 0 23.2368C0 28.7825 2.16357 33.9965 6.0762 37.9177C9.98883 41.8389 15.2115 43.9939 20.7571 43.9939C26.3028 43.9939 31.5169 41.8386 35.438 37.9177C41.2161 32.1397 43.0645 23.4856 40.1548 15.8507C39.989 15.4197 39.5079 15.2121 39.0851 15.3696Z" fill="#9B6402"/>
<path d="M43.9682 6.94728C43.8604 6.64886 43.5952 6.43333 43.2801 6.4002L38.1738 5.83651L37.6101 0.730121C37.5769 0.415117 37.3614 0.141547 37.063 0.0420721C36.7646 -0.0656899 36.4247 0.00891373 36.2009 0.241022L27.8699 8.57199C27.6958 8.74607 27.6046 9.00305 27.6295 9.25171L28.2264 14.6234L23.2692 19.5806C21.5366 18.4034 19.1492 18.5693 17.6158 20.1111C15.8833 21.8436 15.8833 24.6704 17.6158 26.4112C18.4862 27.2816 19.6218 27.7126 20.7658 27.7126C21.9098 27.7126 23.0455 27.2816 23.9159 26.4112C25.4494 24.8776 25.6236 22.4902 24.4464 20.7578L29.4036 15.8006L34.7753 16.3975H34.8664C35.082 16.3975 35.2975 16.3146 35.455 16.1571L43.786 7.8261C44.0098 7.60228 44.0844 7.26241 43.9849 6.96398L43.9682 6.94728ZM22.7384 25.2178C21.6524 26.3037 19.8785 26.3037 18.7842 25.2178C17.69 24.1318 17.6983 22.3579 18.7842 21.2637C19.3313 20.7166 20.0443 20.443 20.7572 20.443C21.2048 20.443 21.6442 20.559 22.0504 20.7746L20.177 22.648C19.8537 22.9713 19.8537 23.4936 20.177 23.8168C20.3427 23.9826 20.55 24.0572 20.7655 24.0572C20.9811 24.0572 21.1883 23.9743 21.3541 23.8168L23.2275 21.9434C23.7746 22.9962 23.6254 24.3225 22.7384 25.2095L22.7384 25.2178ZM34.5512 14.6819L29.8427 14.1597L29.3205 9.4512L36.1426 2.62907L36.5903 6.68266C36.6317 7.06398 36.9384 7.37071 37.3197 7.41215L41.3733 7.85978L34.5512 14.6819Z" fill="#9B6402"/>
</svg>
