<svg width="21" height="21" viewBox="0 0 21 21" fill="none" xmlns="http://www.w3.org/2000/svg">
<path fill-rule="evenodd" clip-rule="evenodd" d="M10.5 21C5.55025 21 3.07538 21 1.53769 19.4623C0 17.9246 0 15.4497 0 10.5C0 5.55025 0 3.07538 1.53769 1.53769C3.07538 0 5.55025 0 10.5 0C15.4497 0 17.9246 0 19.4623 1.53769C21 3.07538 21 5.55025 21 10.5C21 15.4497 21 17.9246 19.4623 19.4623C17.9246 21 15.4497 21 10.5 21ZM10.5 6.5625C10.9349 6.5625 11.2875 6.91508 11.2875 7.35V9.71253H13.65C14.0849 9.71253 14.4375 10.0651 14.4375 10.5C14.4375 10.9349 14.0849 11.2875 13.65 11.2875H11.2875L11.2875 13.65C11.2875 14.0849 10.9349 14.4375 10.5 14.4375C10.0651 14.4375 9.7125 14.0849 9.7125 13.65V11.2875H7.35C6.91508 11.2875 6.5625 10.9349 6.5625 10.5C6.5625 10.0651 6.91508 9.71253 7.35 9.71253H9.7125L9.7125 7.35C9.7125 6.91508 10.0651 6.5625 10.5 6.5625Z" fill="#483956"/>
</svg>
