<svg width="104" height="26" viewBox="0 0 104 26" fill="none" xmlns="http://www.w3.org/2000/svg">
<path d="M7.308 12.7618C7.308 13.8898 7.476 14.8498 7.812 15.6418C8.148 16.4338 8.724 17.1058 9.54 17.6578C10.38 18.1858 11.544 18.5818 13.032 18.8458C14.544 19.0858 16.452 19.2058 18.756 19.2058C20.652 19.2058 22.536 19.1098 24.408 18.9178C26.28 18.7258 28.08 18.4858 29.808 18.1978C31.536 17.9098 33.096 17.6338 34.488 17.3698L35.784 23.4538C34.128 23.8378 32.34 24.1858 30.42 24.4978C28.5 24.7858 26.532 25.0138 24.516 25.1818C22.5 25.3738 20.496 25.4698 18.504 25.4698C15.144 25.4698 12.288 25.1938 9.936 24.6418C7.584 24.0898 5.676 23.2858 4.212 22.2298C2.748 21.1498 1.68 19.8178 1.008 18.2338C0.336 16.6498 0 14.8258 0 12.7618C0 10.7218 0.336 8.90984 1.008 7.32584C1.68 5.74184 2.748 4.42184 4.212 3.36584C5.676 2.28584 7.584 1.46984 9.936 0.917844C12.288 0.365844 15.144 0.0898438 18.504 0.0898438C20.496 0.0898438 22.5 0.173843 24.516 0.341843C26.532 0.509843 28.5 0.749844 30.42 1.06184C32.34 1.37384 34.128 1.72184 35.784 2.10584L34.488 8.18984C33.096 7.90184 31.536 7.62584 29.808 7.36184C28.08 7.07384 26.28 6.83384 24.408 6.64184C22.536 6.44984 20.652 6.35384 18.756 6.35384C16.452 6.35384 14.544 6.48584 13.032 6.74984C11.544 6.98984 10.38 7.37384 9.54 7.90184C8.724 8.42984 8.148 9.10184 7.812 9.91784C7.476 10.7098 7.308 11.6578 7.308 12.7618Z" fill="#1A072C"/>
<path d="M49.8001 19.2202C46.6325 19.2202 44.7148 16.8835 44.7148 13.5952C44.7148 10.2642 46.7035 7.94886 49.7788 7.94886C51.9521 7.94886 53.6069 9.07812 54.1325 10.8395C54.2674 11.3153 53.9833 11.6136 53.4933 11.6136H52.8256C52.4137 11.6136 52.1935 11.4219 52.016 11.0384C51.6467 10.2926 50.9009 9.73864 49.8143 9.73864C48.0387 9.73864 46.8597 11.2088 46.8597 13.5455C46.8597 15.9247 48.0174 17.4233 49.8143 17.4233C50.8157 17.4233 51.6112 16.9545 52.016 16.1236C52.1935 15.7472 52.4137 15.5483 52.8256 15.5483H53.4933C53.9833 15.5483 54.2674 15.7969 54.1538 16.2088C53.6779 17.9844 52.1012 19.2202 49.8001 19.2202ZM61.1477 19.2202C58.0724 19.2202 56.0625 16.9688 56.0625 13.5952C56.0625 10.2003 58.0724 7.94886 61.1477 7.94886C64.223 7.94886 66.233 10.2003 66.233 13.5952C66.233 16.9688 64.223 19.2202 61.1477 19.2202ZM58.2074 13.5881C58.2074 15.6832 59.1449 17.4375 61.1548 17.4375C63.1506 17.4375 64.0881 15.6832 64.0881 13.5881C64.0881 11.5 63.1506 9.72443 61.1548 9.72443C59.1449 9.72443 58.2074 11.5 58.2074 13.5881ZM73.1985 19.2202C70.1232 19.2202 68.1133 16.9688 68.1133 13.5952C68.1133 10.2003 70.1232 7.94886 73.1985 7.94886C76.2738 7.94886 78.2837 10.2003 78.2837 13.5952C78.2837 16.9688 76.2738 19.2202 73.1985 19.2202ZM70.2582 13.5881C70.2582 15.6832 71.1957 17.4375 73.2056 17.4375C75.2013 17.4375 76.1388 15.6832 76.1388 13.5881C76.1388 11.5 75.2013 9.72443 73.2056 9.72443C71.1957 9.72443 70.2582 11.5 70.2582 13.5881ZM85.7464 9.08523C85.7464 9.54688 85.4979 9.79545 85.0362 9.79545H83.5092V15.7969C83.5092 17.0256 84.1271 17.2528 84.8161 17.2528H84.8871C85.3345 17.2386 85.6115 17.3878 85.7038 17.8281L85.7962 18.233C85.8956 18.6733 85.7251 19.0142 85.2706 19.0852C85.0717 19.1136 84.8374 19.142 84.5675 19.142C82.8913 19.1776 81.3786 18.2188 81.3857 16.2372V9.79545H80.4979C80.0362 9.79545 79.7876 9.54688 79.7876 9.08523V8.80114C79.7876 8.33949 80.0362 8.09091 80.4979 8.09091H81.3857V6.1875C81.3857 5.72585 81.6342 5.47727 82.0959 5.47727H82.799C83.2607 5.47727 83.5092 5.72585 83.5092 6.1875V8.09091H85.0362C85.4979 8.09091 85.7464 8.33949 85.7464 8.80114V9.08523ZM90.4535 18.2898C90.4535 18.7514 90.2049 19 89.7433 19H89.0401C88.5785 19 88.3299 18.7514 88.3299 18.2898V5.16477C88.3299 4.70312 88.5785 4.45455 89.0401 4.45455H89.7433C90.2049 4.45455 90.4535 4.70312 90.4535 5.16477V18.2898ZM98.0121 19.2202C94.7947 19.2202 92.8203 17.0043 92.8203 13.6165C92.8203 10.2642 94.8232 7.94886 97.8629 7.94886C100.335 7.94886 102.692 9.49006 102.692 13.4318V13.4744C102.692 13.9361 102.444 14.1847 101.982 14.1847H94.9368C94.9936 16.2869 96.2152 17.4659 98.0334 17.4659C99.0064 17.4659 99.7947 17.125 100.263 16.4574C100.505 16.1023 100.746 15.9389 101.158 16.017L101.783 16.1307C102.266 16.223 102.508 16.5 102.344 16.8622C101.677 18.304 100.114 19.2202 98.0121 19.2202ZM94.9439 12.5938H100.612C100.604 10.9247 99.5249 9.70312 97.8771 9.70312C96.1513 9.70312 95.0291 11.0455 94.9439 12.5938Z" fill="#1A072C"/>
</svg>
