<svg width="16" height="16" viewBox="0 0 16 16" fill="none" xmlns="http://www.w3.org/2000/svg">
<path d="M6.49967 8.0013C6.49967 7.17287 7.17125 6.5013 7.99967 6.5013C8.8281 6.5013 9.49967 7.17287 9.49967 8.0013C9.49967 8.82973 8.8281 9.5013 7.99967 9.5013C7.17125 9.5013 6.49967 8.82973 6.49967 8.0013Z" fill="white"/>
<path fill-rule="evenodd" clip-rule="evenodd" d="M1.33301 8.0013C1.33301 9.09422 1.61632 9.46228 2.18294 10.1984C3.31432 11.6683 5.21175 13.3346 7.99967 13.3346C10.7876 13.3346 12.685 11.6683 13.8164 10.1984C14.383 9.46228 14.6663 9.09422 14.6663 8.0013C14.6663 6.90838 14.383 6.54032 13.8164 5.80419C12.685 4.33434 10.7876 2.66797 7.99967 2.66797C5.21175 2.66797 3.31432 4.33434 2.18294 5.80419C1.61632 6.54032 1.33301 6.90838 1.33301 8.0013ZM7.99967 5.5013C6.61896 5.5013 5.49967 6.62059 5.49967 8.0013C5.49967 9.38201 6.61896 10.5013 7.99967 10.5013C9.38039 10.5013 10.4997 9.38201 10.4997 8.0013C10.4997 6.62059 9.38039 5.5013 7.99967 5.5013Z" fill="white"/>
</svg>
