<svg width="131" height="28" viewBox="0 0 131 28" fill="none" xmlns="http://www.w3.org/2000/svg">
<path d="M8.06218 13.9801C8.06218 15.2246 8.24752 16.2837 8.61819 17.1574C8.98887 18.0312 9.62431 18.7726 10.5245 19.3816C11.4512 19.9641 12.7353 20.4009 14.3769 20.6922C16.0449 20.957 18.1498 21.0894 20.6916 21.0894C22.7833 21.0894 24.8617 20.9835 26.9269 20.7716C28.9921 20.5598 30.9778 20.295 32.8842 19.9773C34.7905 19.6596 36.5115 19.3551 38.0471 19.0638L39.4769 25.7759C37.65 26.1995 35.6775 26.5835 33.5593 26.9277C31.4412 27.2454 29.2701 27.4969 27.046 27.6823C24.822 27.8941 22.6112 28 20.4136 28C16.7069 28 13.5561 27.6955 10.9614 27.0865C8.36666 26.4775 6.26176 25.5905 4.64668 24.4255C3.03159 23.234 1.85337 21.7645 1.11202 20.017C0.370675 18.2695 0 16.2572 0 13.9801C0 11.7296 0.370675 9.7305 1.11202 7.98298C1.85337 6.23546 3.03159 4.7792 4.64668 3.61419C6.26176 2.4227 8.36666 1.52246 10.9614 0.913475C13.5561 0.304492 16.7069 0 20.4136 0C22.6112 0 24.822 0.092671 27.046 0.278013C29.2701 0.463356 31.4412 0.728132 33.5593 1.07234C35.6775 1.41655 37.65 1.80047 39.4769 2.22411L38.0471 8.93617C36.5115 8.61844 34.7905 8.31395 32.8842 8.0227C30.9778 7.70496 28.9921 7.44019 26.9269 7.22837C24.8617 7.01655 22.7833 6.91064 20.6916 6.91064C18.1498 6.91064 16.0449 7.05626 14.3769 7.34752C12.7353 7.61229 11.4512 8.03593 10.5245 8.61844C9.62431 9.20095 8.98887 9.94232 8.61819 10.8426C8.24752 11.7163 8.06218 12.7622 8.06218 13.9801Z" fill="white"/>
<path d="M56.4276 22.7082C51.9616 22.7082 49.258 19.4369 49.258 14.8332C49.258 10.1699 52.0617 6.92841 56.3975 6.92841C59.4617 6.92841 61.7948 8.50937 62.5358 10.9753C62.726 11.6415 62.3255 12.0591 61.6346 12.0591H60.6933C60.1125 12.0591 59.8021 11.7906 59.5518 11.2537C59.0311 10.2097 57.9797 9.43409 56.4476 9.43409C53.9443 9.43409 52.282 11.4923 52.282 14.7636C52.282 18.0946 53.9142 20.1926 56.4476 20.1926C57.8595 20.1926 58.981 19.5364 59.5518 18.373C59.8021 17.846 60.1125 17.5676 60.6933 17.5676H61.6346C62.3255 17.5676 62.726 17.9156 62.5658 18.4923C61.8949 20.9781 59.6719 22.7082 56.4276 22.7082Z" fill="white"/>
<path d="M72.4265 22.7082C68.0907 22.7082 65.2569 19.5562 65.2569 14.8332C65.2569 10.0804 68.0907 6.92841 72.4265 6.92841C76.7623 6.92841 79.5961 10.0804 79.5961 14.8332C79.5961 19.5562 76.7623 22.7082 72.4265 22.7082ZM68.281 14.8233C68.281 17.7565 69.6027 20.2125 72.4365 20.2125C75.2503 20.2125 76.5721 17.7565 76.5721 14.8233C76.5721 11.9 75.2503 9.4142 72.4365 9.4142C69.6027 9.4142 68.281 11.9 68.281 14.8233Z" fill="white"/>
<path d="M89.4168 22.7082C85.081 22.7082 82.2472 19.5562 82.2472 14.8332C82.2472 10.0804 85.081 6.92841 89.4168 6.92841C93.7526 6.92841 96.5864 10.0804 96.5864 14.8332C96.5864 19.5562 93.7526 22.7082 89.4168 22.7082ZM85.2712 14.8233C85.2712 17.7565 86.593 20.2125 89.4268 20.2125C92.2406 20.2125 93.5623 17.7565 93.5623 14.8233C93.5623 11.9 92.2406 9.4142 89.4268 9.4142C86.593 9.4142 85.2712 11.9 85.2712 14.8233Z" fill="white"/>
<path d="M107.108 8.51932C107.108 9.16562 106.758 9.51364 106.107 9.51364H103.954V17.9156C103.954 19.6358 104.825 19.954 105.796 19.954H105.896C106.527 19.9341 106.918 20.1429 107.048 20.7594L107.178 21.3261C107.318 21.9426 107.078 22.4199 106.437 22.5193C106.157 22.5591 105.826 22.5989 105.446 22.5989C103.083 22.6486 100.95 21.3062 100.96 18.5321V9.51364H99.7081C99.0572 9.51364 98.7067 9.16562 98.7067 8.51932V8.12159C98.7067 7.47528 99.0572 7.12727 99.7081 7.12727H100.96V4.4625C100.96 3.81619 101.31 3.46818 101.961 3.46818H102.952C103.603 3.46818 103.954 3.81619 103.954 4.4625V7.12727H106.107C106.758 7.12727 107.108 7.47528 107.108 8.12159V8.51932Z" fill="white"/>
<path d="M113.744 21.4057C113.744 22.052 113.394 22.4 112.743 22.4H111.752C111.101 22.4 110.75 22.052 110.75 21.4057V3.03068C110.75 2.38437 111.101 2.03636 111.752 2.03636H112.743C113.394 2.03636 113.744 2.38437 113.744 3.03068V21.4057Z" fill="white"/>
<path d="M124.401 22.7082C119.865 22.7082 117.081 19.606 117.081 14.8631C117.081 10.1699 119.905 6.92841 124.191 6.92841C127.676 6.92841 131 9.08608 131 14.6045V14.6642C131 15.3105 130.65 15.6585 129.999 15.6585H120.065C120.145 18.6017 121.868 20.2523 124.431 20.2523C125.803 20.2523 126.915 19.775 127.575 18.8403C127.916 18.3432 128.256 18.1145 128.837 18.2239L129.718 18.383C130.399 18.5122 130.74 18.9 130.509 19.4071C129.568 21.4256 127.365 22.7082 124.401 22.7082ZM120.075 13.4312H128.066C128.056 11.0946 126.534 9.38437 124.211 9.38437C121.778 9.38437 120.196 11.2636 120.075 13.4312Z" fill="white"/>
</svg>
