<svg width="20" height="20" viewBox="0 0 20 20" fill="none" xmlns="http://www.w3.org/2000/svg">
<path d="M10.3882 8.95964C12.235 8.95964 13.7322 7.32734 13.7322 5.3138C13.7322 3.30026 12.235 1.66797 10.3882 1.66797C8.54137 1.66797 7.04422 3.30026 7.04422 5.3138C7.04422 7.32734 8.54137 8.95964 10.3882 8.95964Z" fill="white"/>
<path d="M10.3882 18.3346C13.5542 18.3346 16.1207 16.7023 16.1207 14.6888C16.1207 12.6753 13.5542 11.043 10.3882 11.043C7.22221 11.043 4.65567 12.6753 4.65567 14.6888C4.65567 16.7023 7.22221 18.3346 10.3882 18.3346Z" fill="white"/>
<path d="M5.7277 2.70964C5.89725 2.70964 6.06277 2.72777 6.22261 2.76231C5.83322 3.51636 5.61109 4.3868 5.61109 5.3138C5.61109 6.21823 5.82253 7.06882 6.19446 7.81001C6.04337 7.84071 5.88732 7.85679 5.7277 7.85679C4.37633 7.85679 3.28084 6.70456 3.28084 5.28321C3.28084 3.86186 4.37633 2.70964 5.7277 2.70964Z" fill="white"/>
<path d="M4.12764 17.2784C3.58504 16.5712 3.22254 15.7034 3.22254 14.6888C3.22254 13.7052 3.56321 12.8596 4.07838 12.1646C2.25861 12.3185 0.833984 13.4036 0.833984 14.7194C0.833984 16.0476 2.28365 17.1407 4.12764 17.2784Z" fill="white"/>
<path d="M14.5818 7.81001C14.9538 7.06882 15.1652 6.21823 15.1652 5.3138C15.1652 4.3868 14.9431 3.51636 14.5537 2.76231C14.7135 2.72777 14.8791 2.70964 15.0486 2.70964C16.4 2.70964 17.4955 3.86186 17.4955 5.28321C17.4955 6.70456 16.4 7.85679 15.0486 7.85679C14.889 7.85679 14.7329 7.84071 14.5818 7.81001Z" fill="white"/>
<path d="M19.9423 14.7194C19.9423 16.0476 18.4927 17.1407 16.6487 17.2784C17.1913 16.5712 17.5538 15.7034 17.5538 14.6888C17.5538 13.7052 17.2131 12.8596 16.6979 12.1646C18.5177 12.3185 19.9423 13.4036 19.9423 14.7194Z" fill="white"/>
</svg>
