<svg width="47" height="47" viewBox="0 0 47 47" fill="none" xmlns="http://www.w3.org/2000/svg">
<path d="M46.2412 22.6808H44.9483C44.6426 19.4959 42.4649 16.8946 39.5731 15.9624C40.7731 15.1845 41.5761 13.8173 41.5761 12.2653C41.5761 9.84481 39.632 7.87301 37.2454 7.87301C34.8588 7.87301 32.9147 9.84481 32.9147 12.2653C32.9147 13.8173 33.7121 15.1845 34.912 15.9624C33.6722 16.361 32.5407 17.0716 31.6255 18.0421C30.1048 17.0754 28.4169 16.3861 26.6378 16.0106C29.6129 14.7589 31.7072 11.782 31.7072 8.31612C31.7091 3.72553 28.0239 -0.00634766 23.4994 -0.00634766C18.9749 -0.00634766 15.2896 3.72543 15.2896 8.32007C15.2896 11.7861 17.3838 14.7629 20.3591 16.0145C18.5269 16.4035 16.7916 17.1237 15.2308 18.1346C14.3024 17.114 13.1405 16.3708 11.8627 15.9606C13.0626 15.1827 13.86 13.8155 13.86 12.2635C13.86 9.84298 11.9159 7.87119 9.52931 7.87119C7.14274 7.87119 5.19857 9.84298 5.19857 12.2635C5.19857 13.8155 5.99597 15.1827 7.2016 15.9606C4.31003 16.8868 2.13217 19.496 1.82645 22.679H0.757546C0.339851 22.679 0 23.0237 0 23.4473V38.0184C0 38.442 0.339851 38.7867 0.757546 38.7867H12.9674V46.2253C12.9674 46.649 13.3073 46.9937 13.725 46.9937H33.2731C33.6908 46.9937 34.0307 46.649 34.0307 46.2253L34.0326 38.7907H46.2425C46.6601 38.7907 47 38.446 47 38.0224V23.4498C46.9943 23.0261 46.6583 22.6815 46.2406 22.6815L46.2412 22.6808ZM37.2456 9.40963C38.7967 9.40963 40.0593 10.6921 40.0593 12.2634C40.0593 13.8366 38.7948 15.1171 37.2456 15.1171C35.6944 15.1171 34.4318 13.8346 34.4318 12.2634C34.4299 10.6921 35.6887 9.40963 37.2456 9.40963ZM37.2456 17.1351C40.3991 17.1351 43.0494 19.5402 43.4236 22.6808H36.3021C35.3585 21.227 34.2023 19.9696 32.8904 18.9394C34.0523 17.786 35.6128 17.1351 37.2456 17.1351ZM34.4413 22.6808H12.5582C15.1688 19.2436 19.1883 17.2239 23.5 17.2239C27.8212 17.2239 31.8308 19.2438 34.4413 22.6808ZM16.8072 8.31972C16.8072 4.57251 19.8108 1.5318 23.5 1.5318C27.1947 1.5318 30.1928 4.57808 30.1928 8.31972C30.1928 12.0614 27.1949 15.1076 23.5 15.1076C19.8051 15.1076 16.8072 12.0614 16.8072 8.31972ZM9.53553 9.40958C11.0867 9.40958 12.3493 10.692 12.3493 12.2633C12.3493 13.8365 11.0848 15.1171 9.53553 15.1171C7.98437 15.1171 6.72178 13.8346 6.72178 12.2633C6.72178 10.692 7.98053 9.40958 9.53553 9.40958ZM9.53553 17.1351C11.2215 17.1351 12.8163 17.8244 13.9878 19.0376C12.729 20.0485 11.6164 21.2712 10.7013 22.675L10.707 22.6808H3.35366C3.73148 19.5402 6.37615 17.1351 9.53553 17.1351ZM32.5161 45.4585H14.483V38.7904H32.5161V45.4585ZM45.4837 37.2519H1.51582V24.2178H45.4779V37.2519H45.4837ZM11.6639 34.2749C13.5891 34.2749 15.1536 32.6882 15.1536 30.7357C15.1536 28.7831 13.5891 27.1964 11.6639 27.1964C9.73874 27.1964 8.17427 28.7831 8.17427 30.7357C8.17427 32.6863 9.74064 34.2749 11.6639 34.2749ZM11.6639 28.7292C12.7518 28.7292 13.6422 29.6265 13.6422 30.7357C13.6422 31.8448 12.7575 32.7421 11.6639 32.7421C10.5703 32.7421 9.68557 31.8448 9.68557 30.7357C9.68557 29.6265 10.576 28.7292 11.6639 28.7292ZM23.5 34.2749C25.4252 34.2749 26.9897 32.6882 26.9897 30.7357C26.9897 28.7831 25.4252 27.1907 23.5 27.1907C21.5749 27.1907 20.0104 28.7774 20.0104 30.7299C20.0104 32.6824 21.5749 34.2749 23.5 34.2749ZM23.5 28.7292C24.5879 28.7292 25.4784 29.6265 25.4784 30.7357C25.4784 31.8448 24.5936 32.7421 23.5 32.7421C22.4064 32.7421 21.5217 31.8448 21.5217 30.7357C21.5217 29.6265 22.4121 28.7292 23.5 28.7292ZM35.3361 34.2749C37.2613 34.2749 38.8258 32.6882 38.8258 30.7357C38.8258 28.7831 37.2613 27.1964 35.3361 27.1964C33.411 27.1964 31.8465 28.7831 31.8465 30.7357C31.8465 32.6863 33.411 34.2749 35.3361 34.2749ZM35.3361 28.7292C36.424 28.7292 37.3145 29.6265 37.3145 30.7357C37.3145 31.8448 36.4297 32.7421 35.3361 32.7421C34.2425 32.7421 33.3578 31.8448 33.3578 30.7357C33.3578 29.6265 34.2463 28.7292 35.3361 28.7292Z" fill="#CD2F7A"/>
</svg>
