<svg width="17" height="17" viewBox="0 0 17 17" fill="none" xmlns="http://www.w3.org/2000/svg">
<path d="M16.1499 7.64998H9.35002V0.849946C9.35002 0.380849 8.96917 0 8.49992 0C8.03083 0 7.64998 0.380849 7.64998 0.849946V7.64998H0.849946C0.380849 7.64998 0 8.03083 0 8.49992C0 8.96917 0.380849 9.35002 0.849946 9.35002H7.64998V16.1499C7.64998 16.6192 8.03083 17 8.49992 17C8.96917 17 9.35002 16.6192 9.35002 16.1499V9.35002H16.1499C16.6192 9.35002 17 8.96917 17 8.49992C17 8.03083 16.6192 7.64998 16.1499 7.64998Z" fill="white" fill-opacity="0.3"/>
</svg>
