<svg width="17" height="17" viewBox="0 0 17 17" fill="none" xmlns="http://www.w3.org/2000/svg">
<g clip-path="url(#clip0_1289_4075)">
<path d="M15.7201 6.86936H9.48687V0.818772C9.48687 0.401375 9.13776 0.0625 8.70761 0.0625C8.27761 0.0625 7.92849 0.401375 7.92849 0.818772V6.86936H1.69513C1.26513 6.86936 0.916016 7.20824 0.916016 7.62564C0.916016 8.04317 1.26513 8.38205 1.69513 8.38205H7.92849V14.4325C7.92849 14.85 8.27761 15.1889 8.70761 15.1889C9.13776 15.1889 9.48687 14.85 9.48687 14.4325V8.38205H15.7201C16.1502 8.38205 16.4993 8.04317 16.4993 7.62564C16.4993 7.20824 16.1502 6.86936 15.7201 6.86936Z" fill="#1A072C"/>
</g>
<defs>
<clipPath id="clip0_1289_4075">
<rect width="16.5" height="16.0162" fill="white" transform="translate(0 0.0625)"/>
</clipPath>
</defs>
</svg>
