<svg width="18" height="18" viewBox="0 0 18 18" fill="none" xmlns="http://www.w3.org/2000/svg">
<path fill-rule="evenodd" clip-rule="evenodd" d="M9 16.5C5.46447 16.5 3.6967 16.5 2.59835 15.4017C1.5 14.3033 1.5 12.5355 1.5 9C1.5 5.46447 1.5 3.6967 2.59835 2.59835C3.6967 1.5 5.46447 1.5 9 1.5C12.5355 1.5 14.3033 1.5 15.4017 2.59835C16.5 3.6967 16.5 5.46447 16.5 9C16.5 12.5355 16.5 14.3033 15.4017 15.4017C14.3033 16.5 12.5355 16.5 9 16.5ZM11.8125 9C11.8125 9.31066 11.5607 9.5625 11.25 9.5625H6.75C6.43934 9.5625 6.1875 9.31066 6.1875 9C6.1875 8.68934 6.43934 8.4375 6.75 8.4375H11.25C11.5607 8.4375 11.8125 8.68934 11.8125 9Z" fill="#483956"/>
</svg>
