<svg width="13" height="13" viewBox="0 0 13 13" fill="none" xmlns="http://www.w3.org/2000/svg">
<g clip-path="url(#clip0_1693_2423)">
<path d="M9.055 0.264378L3.035 2.26438C-1.01167 3.61771 -1.01167 5.82438 3.035 7.17104L4.82167 7.76438L5.415 9.55104C6.76167 13.5977 8.975 13.5977 10.3217 9.55104L12.3283 3.53771C13.2217 0.837711 11.755 -0.635622 9.055 0.264378ZM9.26833 3.85104L6.735 6.39771C6.635 6.49771 6.50833 6.54438 6.38167 6.54438C6.255 6.54438 6.12833 6.49771 6.02833 6.39771C5.835 6.20438 5.835 5.88438 6.02833 5.69104L8.56167 3.14438C8.755 2.95104 9.075 2.95104 9.26833 3.14438C9.46167 3.33771 9.46167 3.65771 9.26833 3.85104Z" fill="white"/>
</g>
<defs>
<clipPath id="clip0_1693_2423">
<rect width="12.5902" height="12.586" fill="white"/>
</clipPath>
</defs>
</svg>
