<svg width="20" height="20" viewBox="0 0 20 20" fill="none" xmlns="http://www.w3.org/2000/svg">
<path fill-rule="evenodd" clip-rule="evenodd" d="M9.99943 6.8763C8.27354 6.8763 6.87443 8.27541 6.87443 10.0013C6.87443 11.7272 8.27354 13.1263 9.99943 13.1263C11.7253 13.1263 13.1244 11.7272 13.1244 10.0013C13.1244 8.27541 11.7253 6.8763 9.99943 6.8763ZM8.12443 10.0013C8.12443 8.96577 8.9639 8.1263 9.99943 8.1263C11.035 8.1263 11.8744 8.96577 11.8744 10.0013C11.8744 11.0368 11.035 11.8763 9.99943 11.8763C8.9639 11.8763 8.12443 11.0368 8.12443 10.0013Z" fill="#1A072C"/>
<path fill-rule="evenodd" clip-rule="evenodd" d="M9.97838 1.04297C9.608 1.04296 9.2988 1.04296 9.04495 1.06028C8.7807 1.07831 8.5311 1.11718 8.28911 1.21741C7.72759 1.45 7.28146 1.89613 7.04887 2.45765C6.92778 2.74998 6.89499 3.05807 6.88246 3.39294C6.8724 3.66213 6.73654 3.88673 6.53606 4.00248C6.33557 4.11823 6.07314 4.12358 5.83498 3.9977C5.53871 3.84111 5.2555 3.71546 4.94179 3.67416C4.3392 3.59483 3.72978 3.75813 3.24759 4.12812C3.03979 4.28758 2.88132 4.4843 2.73359 4.70414C2.59166 4.91531 2.43707 5.18309 2.25188 5.50386L2.23084 5.54031C2.04564 5.86107 1.89104 6.12884 1.77911 6.35733C1.6626 6.59519 1.57146 6.83079 1.53727 7.09048C1.45794 7.69307 1.62124 8.30249 1.99123 8.78468C2.18383 9.03568 2.4342 9.2181 2.7179 9.39636C2.94605 9.53972 3.07266 9.76973 3.07265 10.0013C3.07264 10.2328 2.94603 10.4628 2.71791 10.6061C2.43417 10.7844 2.18377 10.9668 1.99115 11.2179C1.62115 11.7001 1.45786 12.3095 1.53719 12.9121C1.57138 13.1718 1.66252 13.4074 1.77903 13.6452C1.89095 13.8737 2.04555 14.1415 2.23075 14.4622L2.2518 14.4987C2.43699 14.8195 2.59158 15.0872 2.7335 15.2984C2.88124 15.5182 3.03971 15.715 3.24751 15.8744C3.7297 16.2444 4.33912 16.4077 4.94171 16.3284C5.2554 16.2871 5.53859 16.1615 5.83485 16.0049C6.07304 15.879 6.33551 15.8843 6.53602 16.0001C6.73653 16.1159 6.8724 16.3405 6.88247 16.6097C6.89499 16.9446 6.92779 17.2526 7.04887 17.545C7.28146 18.1065 7.72759 18.5526 8.28911 18.7852C8.5311 18.8854 8.7807 18.9243 9.04495 18.9423C9.2988 18.9596 9.60799 18.9596 9.97838 18.9596H10.0205C10.3909 18.9596 10.7001 18.9596 10.9539 18.9423C11.2181 18.9243 11.4677 18.8854 11.7097 18.7852C12.2713 18.5526 12.7174 18.1065 12.95 17.545C13.0711 17.2526 13.1039 16.9445 13.1164 16.6096C13.1265 16.3404 13.2623 16.1158 13.4628 16.0001C13.6633 15.8843 13.9258 15.8789 14.1639 16.0048C14.4602 16.1614 14.7434 16.287 15.0571 16.3283C15.6596 16.4077 16.2691 16.2444 16.7513 15.8744C16.9591 15.7149 17.1175 15.5182 17.2653 15.2984C17.4072 15.0872 17.5618 14.8194 17.7469 14.4987L17.768 14.4622C17.9532 14.1415 18.1078 13.8736 18.2197 13.6452C18.3362 13.4073 18.4274 13.1717 18.4616 12.912C18.5409 12.3094 18.3776 11.7 18.0076 11.2178C17.815 10.9668 17.5646 10.7844 17.2809 10.6061C17.0528 10.4628 16.9262 10.2328 16.9262 10.0013C16.9262 9.76976 17.0528 9.53981 17.2809 9.3965C17.5646 9.21822 17.8151 9.03577 18.0077 8.78473C18.3777 8.30255 18.541 7.69312 18.4617 7.09054C18.4275 6.83085 18.3363 6.59525 18.2198 6.35739C18.1079 6.12891 17.9533 5.86116 17.7681 5.54043L17.7471 5.50395C17.5619 5.18318 17.4073 4.91537 17.2653 4.70419C17.1176 4.48436 16.9591 4.28763 16.7513 4.12818C16.2691 3.75818 15.6597 3.59489 15.0571 3.67422C14.7434 3.71552 14.4603 3.84115 14.164 3.99773C13.9258 4.12362 13.6633 4.11827 13.4628 4.0025C13.2623 3.88674 13.1265 3.66211 13.1164 3.39289C13.1039 3.05804 13.0711 2.74997 12.95 2.45765C12.7174 1.89613 12.2713 1.45 11.7097 1.21741C11.4677 1.11718 11.2181 1.07831 10.9539 1.06028C10.7001 1.04296 10.3909 1.04296 10.0205 1.04297H9.97838ZM8.76746 2.37226C8.83176 2.34563 8.92944 2.32107 9.13004 2.30738C9.33626 2.29331 9.60259 2.29297 9.99942 2.29297C10.3963 2.29297 10.6626 2.29331 10.8688 2.30738C11.0694 2.32107 11.1671 2.34563 11.2314 2.37226C11.4866 2.47798 11.6894 2.68077 11.7951 2.93601C11.8285 3.01652 11.8561 3.14203 11.8673 3.43961C11.892 4.09993 12.2328 4.73571 12.8378 5.08504C13.4429 5.43437 14.1639 5.41164 14.7481 5.10287C15.0114 4.96372 15.1339 4.9249 15.2203 4.91353C15.4942 4.87747 15.7712 4.95169 15.9904 5.11987C16.0456 5.16224 16.1157 5.23455 16.2279 5.40143C16.3432 5.57299 16.4766 5.80347 16.675 6.14714C16.8735 6.49081 17.0063 6.72162 17.0973 6.90725C17.1857 7.08782 17.2133 7.1847 17.2224 7.25369C17.2584 7.5276 17.1842 7.80461 17.016 8.02378C16.9629 8.09293 16.8681 8.17963 16.6159 8.33808C16.0564 8.6896 15.6762 9.30259 15.6762 10.0012C15.6762 10.6999 16.0564 11.313 16.6159 11.6645C16.868 11.8229 16.9629 11.9096 17.0159 11.9788C17.1841 12.1979 17.2583 12.475 17.2223 12.7489C17.2132 12.8179 17.1856 12.9147 17.0972 13.0953C17.0062 13.2809 16.8734 13.5117 16.675 13.8554C16.4765 14.1991 16.3431 14.4296 16.2278 14.6011C16.1156 14.768 16.0455 14.8403 15.9903 14.8827C15.7711 15.0509 15.4941 15.1251 15.2202 15.089C15.1338 15.0776 15.0113 15.0388 14.748 14.8997C14.1638 14.5909 13.4428 14.5682 12.8377 14.9176C12.2327 15.2669 11.8919 15.9027 11.8673 16.5629C11.8561 16.8606 11.8285 16.9861 11.7951 17.0666C11.6894 17.3218 11.4866 17.5246 11.2314 17.6303C11.1671 17.657 11.0694 17.6815 10.8688 17.6952C10.6626 17.7093 10.3963 17.7096 9.99942 17.7096C9.60259 17.7096 9.33626 17.7093 9.13004 17.6952C8.92944 17.6815 8.83176 17.657 8.76746 17.6303C8.51222 17.5246 8.30944 17.3218 8.20372 17.0666C8.17037 16.9861 8.14272 16.8606 8.13159 16.563C8.1069 15.9027 7.76607 15.2669 7.16101 14.9176C6.55596 14.5682 5.83495 14.591 5.25075 14.8997C4.98747 15.0389 4.86495 15.0777 4.77855 15.0891C4.50465 15.1251 4.22764 15.0509 4.00846 14.8827C3.95325 14.8404 3.88314 14.7681 3.77098 14.6012C3.65568 14.4296 3.52223 14.1991 3.32381 13.8555C3.12539 13.5118 2.99252 13.281 2.9016 13.0954C2.81315 12.9148 2.78558 12.8179 2.7765 12.7489C2.74044 12.475 2.81466 12.198 2.98284 11.9788C3.0359 11.9097 3.13077 11.823 3.38293 11.6645C3.94242 11.313 4.32261 10.7 4.32265 10.0014C4.32269 9.30264 3.94248 8.68953 3.38294 8.33795C3.13084 8.17955 3.03597 8.09286 2.98293 8.02373C2.81474 7.80455 2.74052 7.52754 2.77658 7.25364C2.78566 7.18464 2.81323 7.08776 2.90168 6.90719C2.9926 6.72156 3.12547 6.49075 3.32389 6.14708C3.52231 5.80341 3.65577 5.57293 3.77106 5.40138C3.88322 5.23449 3.95333 5.16218 4.00854 5.11981C4.22772 4.95163 4.50473 4.87741 4.77863 4.91347C4.86504 4.92485 4.98756 4.96366 5.25087 5.10283C5.83504 5.41159 6.55602 5.43432 7.16105 5.08501C7.76608 4.7357 8.1069 4.09994 8.13159 3.43965C8.14272 3.14204 8.17036 3.01652 8.20372 2.93601C8.30944 2.68077 8.51222 2.47798 8.76746 2.37226Z" fill="#1A072C"/>
</svg>
